<?xml version="1.0" encoding="UTF-8" standalone="no"?>
<!-- Created with Inkscape (http://www.inkscape.org/) -->

<svg
   xmlns:dc="http://purl.org/dc/elements/1.1/"
   xmlns:cc="http://creativecommons.org/ns#"
   xmlns:rdf="http://www.w3.org/1999/02/22-rdf-syntax-ns#"
   xmlns:svg="http://www.w3.org/2000/svg"
   xmlns="http://www.w3.org/2000/svg"
   xmlns:sodipodi="http://sodipodi.sourceforge.net/DTD/sodipodi-0.dtd"
   xmlns:inkscape="http://www.inkscape.org/namespaces/inkscape"
   width="100.3059mm"
   height="85.616402mm"
   viewBox="0 0 355.41461 303.3652"
   id="svg2"
   version="1.1"
   inkscape:version="0.91 r13725"
   sodipodi:docname="drawing.svg"
   inkscape:export-filename="/home/pablo/Escritorio/drawing.png"
   inkscape:export-xdpi="300"
   inkscape:export-ydpi="300">
  <defs
     id="defs4">
    <marker
       inkscape:isstock="true"
       style="overflow:visible"
       id="marker22384"
       refX="0"
       refY="0"
       orient="auto"
       inkscape:stockid="Arrow2Lend">
      <path
         transform="matrix(-1.1,0,0,-1.1,-1.1,0)"
         d="M 8.7185878,4.0337352 -2.2072895,0.01601326 8.7185884,-4.0017078 c -1.7454984,2.3720609 -1.7354408,5.6174519 -6e-7,8.035443 z"
         style="fill:#305b59;fill-opacity:1;fill-rule:evenodd;stroke:#836a2c;stroke-width:0.625;stroke-linejoin:round;stroke-opacity:0.21256038"
         id="path22386"
         inkscape:connector-curvature="0" />
    </marker>
    <marker
       inkscape:stockid="Arrow2Lend"
       orient="auto"
       refY="0"
       refX="0"
       id="marker22208"
       style="overflow:visible"
       inkscape:isstock="true">
      <path
         id="path22210"
         style="fill:#665b59;fill-opacity:1;fill-rule:evenodd;stroke:#463731;stroke-width:0.625;stroke-linejoin:round;stroke-opacity:0.21256038"
         d="M 8.7185878,4.0337352 -2.2072895,0.01601326 8.7185884,-4.0017078 c -1.7454984,2.3720609 -1.7354408,5.6174519 -6e-7,8.035443 z"
         transform="matrix(-1.1,0,0,-1.1,-1.1,0)"
         inkscape:connector-curvature="0" />
    </marker>
    <marker
       inkscape:stockid="Arrow2Lend"
       orient="auto"
       refY="0"
       refX="0"
       id="marker21884"
       style="overflow:visible"
       inkscape:isstock="true">
      <path
         id="path21886"
         style="fill:#a08cb3;fill-opacity:0.67632847;fill-rule:evenodd;stroke:#eba429;stroke-width:0.625;stroke-linejoin:round;stroke-opacity:1"
         d="M 8.7185878,4.0337352 -2.2072895,0.01601326 8.7185884,-4.0017078 c -1.7454984,2.3720609 -1.7354408,5.6174519 -6e-7,8.035443 z"
         transform="matrix(-1.1,0,0,-1.1,-1.1,0)"
         inkscape:connector-curvature="0" />
    </marker>
    <marker
       inkscape:isstock="true"
       style="overflow:visible"
       id="marker19812"
       refX="0"
       refY="0"
       orient="auto"
       inkscape:stockid="Arrow2Lend">
      <path
         transform="matrix(-1.1,0,0,-1.1,-1.1,0)"
         d="M 8.7185878,4.0337352 -2.2072895,0.01601326 8.7185884,-4.0017078 c -1.7454984,2.3720609 -1.7354408,5.6174519 -6e-7,8.035443 z"
         style="fill:#393c43;fill-opacity:1;fill-rule:evenodd;stroke:#000900;stroke-width:0.625;stroke-linejoin:round;stroke-opacity:1"
         id="path19814"
         inkscape:connector-curvature="0" />
    </marker>
    <marker
       inkscape:stockid="Arrow2Lend"
       orient="auto"
       refY="0"
       refX="0"
       id="marker18336"
       style="overflow:visible"
       inkscape:isstock="true">
      <path
         id="path18338"
         style="fill:#9400ff;fill-opacity:1;fill-rule:evenodd;stroke:none;stroke-width:0.625;stroke-linejoin:round;stroke-opacity:1"
         d="M 8.7185878,4.0337352 -2.2072895,0.01601326 8.7185884,-4.0017078 c -1.7454984,2.3720609 -1.7354408,5.6174519 -6e-7,8.035443 z"
         transform="matrix(-1.1,0,0,-1.1,-1.1,0)"
         inkscape:connector-curvature="0" />
    </marker>
    <marker
       inkscape:isstock="true"
       style="overflow:visible"
       id="marker18016"
       refX="0"
       refY="0"
       orient="auto"
       inkscape:stockid="Arrow2Lend">
      <path
         transform="matrix(-1.1,0,0,-1.1,-1.1,0)"
         d="M 8.7185878,4.0337352 -2.2072895,0.01601326 8.7185884,-4.0017078 c -1.7454984,2.3720609 -1.7354408,5.6174519 -6e-7,8.035443 z"
         style="fill:#353564;fill-opacity:1;fill-rule:evenodd;stroke:none;stroke-width:0.625;stroke-linejoin:round;stroke-opacity:1"
         id="path18018"
         inkscape:connector-curvature="0" />
    </marker>
    <marker
       inkscape:isstock="true"
       style="overflow:visible"
       id="marker17934"
       refX="0"
       refY="0"
       orient="auto"
       inkscape:stockid="Arrow2Lend">
      <path
         transform="matrix(-1.1,0,0,-1.1,-1.1,0)"
         d="M 8.7185878,4.0337352 -2.2072895,0.01601326 8.7185884,-4.0017078 c -1.7454984,2.3720609 -1.7354408,5.6174519 -6e-7,8.035443 z"
         style="fill:#d7d7ff;fill-opacity:1;fill-rule:evenodd;stroke:none;stroke-width:0.625;stroke-linejoin:round;stroke-opacity:1"
         id="path17936"
         inkscape:connector-curvature="0" />
    </marker>
    <marker
       inkscape:isstock="true"
       style="overflow:visible"
       id="marker17898"
       refX="0"
       refY="0"
       orient="auto"
       inkscape:stockid="Arrow2Lend">
      <path
         transform="matrix(-1.1,0,0,-1.1,-1.1,0)"
         d="M 8.7185878,4.0337352 -2.2072895,0.01601326 8.7185884,-4.0017078 c -1.7454984,2.3720609 -1.7354408,5.6174519 -6e-7,8.035443 z"
         style="fill:#9400ff;fill-opacity:1;fill-rule:evenodd;stroke:none;stroke-width:0.625;stroke-linejoin:round;stroke-opacity:1"
         id="path17900"
         inkscape:connector-curvature="0" />
    </marker>
    <marker
       inkscape:stockid="Arrow2Lend"
       orient="auto"
       refY="0"
       refX="0"
       id="marker11348"
       style="overflow:visible"
       inkscape:isstock="true">
      <path
         id="path11350"
         style="fill:#9400ff;fill-opacity:1;fill-rule:evenodd;stroke:none;stroke-width:0.625;stroke-linejoin:round;stroke-opacity:1"
         d="M 8.7185878,4.0337352 -2.2072895,0.01601326 8.7185884,-4.0017078 c -1.7454984,2.3720609 -1.7354408,5.6174519 -6e-7,8.035443 z"
         transform="matrix(-1.1,0,0,-1.1,-1.1,0)"
         inkscape:connector-curvature="0" />
    </marker>
    <inkscape:perspective
       sodipodi:type="inkscape:persp3d"
       inkscape:vp_x="0 : 526.18108 : 1"
       inkscape:vp_y="0 : 999.99997 : 0"
       inkscape:vp_z="744.09448 : 526.18108 : 1"
       inkscape:persp3d-origin="372.04723 : 350.78739 : 1"
       id="perspective8876" />
    <marker
       inkscape:isstock="true"
       style="overflow:visible"
       id="marker8684"
       refX="0"
       refY="0"
       orient="auto"
       inkscape:stockid="Arrow2Lend">
      <path
         transform="matrix(-1.1,0,0,-1.1,-1.1,0)"
         d="M 8.7185878,4.0337352 -2.2072895,0.01601326 8.7185884,-4.0017078 c -1.7454984,2.3720609 -1.7354408,5.6174519 -6e-7,8.035443 z"
         style="fill:#9400ff;fill-opacity:1;fill-rule:evenodd;stroke:none;stroke-width:0.625;stroke-linejoin:round;stroke-opacity:1"
         id="path8686"
         inkscape:connector-curvature="0" />
    </marker>
    <marker
       inkscape:isstock="true"
       style="overflow:visible"
       id="marker7458"
       refX="0"
       refY="0"
       orient="auto"
       inkscape:stockid="Arrow2Lend">
      <path
         transform="matrix(-1.1,0,0,-1.1,-1.1,0)"
         d="M 8.7185878,4.0337352 -2.2072895,0.01601326 8.7185884,-4.0017078 c -1.7454984,2.3720609 -1.7354408,5.6174519 -6e-7,8.035443 z"
         style="fill:#9400ff;fill-opacity:1;fill-rule:evenodd;stroke:none;stroke-width:0.625;stroke-linejoin:round;stroke-opacity:1"
         id="path7460"
         inkscape:connector-curvature="0" />
    </marker>
    <marker
       inkscape:isstock="true"
       style="overflow:visible"
       id="marker7398"
       refX="0"
       refY="0"
       orient="auto"
       inkscape:stockid="Arrow2Lend">
      <path
         transform="matrix(-1.1,0,0,-1.1,-1.1,0)"
         d="M 8.7185878,4.0337352 -2.2072895,0.01601326 8.7185884,-4.0017078 c -1.7454984,2.3720609 -1.7354408,5.6174519 -6e-7,8.035443 z"
         style="fill:#9400ff;fill-opacity:1;fill-rule:evenodd;stroke:none;stroke-width:0.625;stroke-linejoin:round;stroke-opacity:1"
         id="path7400"
         inkscape:connector-curvature="0" />
    </marker>
    <marker
       inkscape:isstock="true"
       style="overflow:visible"
       id="marker7366"
       refX="0"
       refY="0"
       orient="auto"
       inkscape:stockid="Arrow2Lend">
      <path
         transform="matrix(-1.1,0,0,-1.1,-1.1,0)"
         d="M 8.7185878,4.0337352 -2.2072895,0.01601326 8.7185884,-4.0017078 c -1.7454984,2.3720609 -1.7354408,5.6174519 -6e-7,8.035443 z"
         style="fill:#000000;fill-opacity:1;fill-rule:evenodd;stroke:#000000;stroke-width:0.625;stroke-linejoin:round;stroke-opacity:1"
         id="path7368"
         inkscape:connector-curvature="0" />
    </marker>
    <marker
       inkscape:stockid="Arrow1Lend"
       orient="auto"
       refY="0"
       refX="0"
       id="Arrow1Lend"
       style="overflow:visible"
       inkscape:isstock="true">
      <path
         id="path6247"
         d="M 0,0 5,-5 -12.5,0 5,5 0,0 Z"
         style="fill:#000000;fill-opacity:1;fill-rule:evenodd;stroke:#000000;stroke-width:1pt;stroke-opacity:1"
         transform="matrix(-0.8,0,0,-0.8,-10,0)"
         inkscape:connector-curvature="0" />
    </marker>
    <marker
       inkscape:stockid="Arrow2Lend"
       orient="auto"
       refY="0"
       refX="0"
       id="Arrow2Lend-6"
       style="overflow:visible"
       inkscape:isstock="true">
      <path
         inkscape:connector-curvature="0"
         id="path6265-7"
         style="fill:#000000;fill-opacity:1;fill-rule:evenodd;stroke:#000000;stroke-width:0.625;stroke-linejoin:round;stroke-opacity:1"
         d="M 8.7185878,4.0337352 -2.2072895,0.01601326 8.7185884,-4.0017078 c -1.7454984,2.3720609 -1.7354408,5.6174519 -6e-7,8.035443 z"
         transform="matrix(-1.1,0,0,-1.1,-1.1,0)" />
    </marker>
  </defs>
  <sodipodi:namedview
     id="base"
     pagecolor="#ede0eb"
     bordercolor="#666666"
     borderopacity="1.0"
     inkscape:pageopacity="1"
     inkscape:pageshadow="2"
     inkscape:zoom="0.7"
     inkscape:cx="292.64307"
     inkscape:cy="196.24168"
     inkscape:document-units="px"
     inkscape:current-layer="layer1"
     showgrid="false"
     inkscape:window-width="1327"
     inkscape:window-height="744"
     inkscape:window-x="39"
     inkscape:window-y="24"
     inkscape:window-maximized="1"
     showguides="true"
     fit-margin-top="1"
     fit-margin-left="1"
     fit-margin-bottom="1"
     fit-margin-right="1" />
  <metadata
     id="metadata7">
    <rdf:RDF>
      <cc:Work
         rdf:about="">
        <dc:format>image/svg+xml</dc:format>
        <dc:type
           rdf:resource="http://purl.org/dc/dcmitype/StillImage" />
        <dc:title></dc:title>
      </cc:Work>
    </rdf:RDF>
  </metadata>
  <g
     inkscape:label="Capa 1"
     inkscape:groupmode="layer"
     id="layer1"
     transform="translate(-45.3772,-200.57939)">
    <path
       inkscape:connector-curvature="0"
       d="m 183.09309,416.69099 c 0,7.128 3.132,12.888 7.02,12.888 3.889,0 7.021,-5.76 7.021,-12.888 0,-7.128 -3.132,-12.925 -7.021,-12.925 -3.888,0.001 -7.02,5.797 -7.02,12.925 l 0,0 z"
       style="fill-rule:evenodd;stroke:#000000;stroke-width:0.036;stroke-miterlimit:10"
       id="path7" />
    <path
       inkscape:connector-curvature="0"
       d="m 185.00109,417.80699 c 0,4.933 2.195,8.893 4.859,8.893 2.664,0 4.86,-3.96 4.86,-8.893 0,-4.932 -2.196,-8.928 -4.86,-8.928 -2.664,0 -4.859,3.996 -4.859,8.928 l 0,0 z"
       style="fill:#c0c0c0;fill-rule:evenodd;stroke:#000000;stroke-width:0.036;stroke-miterlimit:10"
       id="path9" />
    <path
       inkscape:connector-curvature="0"
       d="m 86.397094,345.77099 c -2.16,-0.468 -4.572,-0.036 -7.38,1.296 -2.988,1.188 -6.3,2.844 -9.504,6.336 -3.276,3.348 -6.336,7.344 -9.468,14.472 -3.132,7.2 -7.452,18.252 -9.216,28.44 -1.836,10.151 -2.268,20.916 -1.584,32.147 0.54,11.16 2.808,24.048 5.544,34.236 2.808,10.08 6.444,19.368 11.052,25.775 4.428,6.265 9.972,10.404 15.804,11.593 5.868,1.044 13.068,-0.433 18.971996,-5.256 5.796,-5.005 10.872,-12.816 15.516,-23.977 l 0,0 21.348,9.504 31.32,0 0,0 c 2.232,3.853 4.824,7.092 7.92,9.721 3.061,2.663 6.48,4.644 10.26,5.796 3.564,1.008 7.38,1.8 11.592,0 4.141,-2.053 9.217,-5.221 13.429,-11.593 4.176,-6.443 8.784,-15.624 11.592,-26.567 2.7,-11.088 4.644,-26.676 4.716,-38.988 -0.107,-12.384 -2.016,-24.3 -4.464,-34.488 -2.52,-10.332 -5.868,-19.907 -9.756,-26.352 -3.924,-6.444 -8.353,-9.324 -13.14,-11.844 -4.896,-2.628 -9.9,-3.636 -15.553,-3.42 l 0,0 c 1.692,-1.044 2.7,-3.672 2.88,-7.884 0.217,-4.392 0.433,-10.548 -1.836,-17.64 -2.412,-7.164 -8.388,-19.296 -12.384,-25.02 -4.14,-5.796 -7.956,-8.964 -11.844,-9.504 l 0,0 c 1.691,-1.692 3.312,-3.996 5.004,-6.912 1.548,-3.024 3.78,-6.336 4.752,-10.764 0.9,-4.572 1.764,-10.908 0.792,-16.092 -1.116,-5.4 -3.168,-10.584 -6.84,-15.013 -3.853,-4.5 -8.856,-8.964 -15.012,-11.052 -6.229,-2.088 -15.012,-2.195 -21.349,-1.296 -6.336,0.792 -11.592,3.313 -16.056,6.3 -4.572,2.952 -7.812,6.732 -10.548,11.34 -2.808,4.465 -5.003996,10.801 -5.759996,15.517 -0.9,4.716 -0.792,8.244 1.296,12.384 2.087996,4.104 5.867996,7.92 11.339996,11.844 l 0,0 c -5.292,1.764 -9.288,3.384 -12.383996,5.004 -3.024,1.548 -5.004,3.096 -5.796,4.5 l 0,0 c -0.504,-3.528 -1.548,-6.3 -3.42,-8.46 -1.908,-2.196 -3.528,-3.636 -7.632,-4.464 -4.212,-0.864 -9.828,-1.044 -17.136,-0.54 l 0,0 c -2.232,1.908 -3.456,3.888 -3.672,6.084 -0.252,2.16 0.396,4.392 2.088,6.84 l 0,0 c 5.652,-0.288 10.08,-0.108 13.428,0.54 3.24,0.576 4.896,1.152 6.336,3.132 1.404,1.836 1.836,4.284 2.124,8.172 0.144,3.852 -0.72,9.972 -0.792,15.012 -0.216,4.896 -0.324,9.54 0.252,14.76 0.505,5.221 1.657,10.585 3.169,16.381 l 0,0 z m 117.251996,29.124 c -3.348,9.252 -6.588,17.964 -10.151,26.676 -3.637,8.748 -7.813,17.496 -10.98,24.983 -3.204,7.309 -5.796,13.32 -7.92,18.576 l 0,0 c 5.22,2.844 9.216,5.364 11.988,7.416 2.735,1.944 3.744,3.168 4.536,4.933 0.684,1.764 0.684,3.563 -0.145,5.544 l 0,0 6.912,6.336 -3.023,9.288 -7.776,1.008 0,0 c 0.936,1.08 2.016,1.656 3.528,1.872 1.332,0.18 3.023,0.359 5.075,-0.864 2.017,-1.476 4.465,-3.492 6.912,-7.416 2.34,-3.96 5.112,-9.216 6.948,-16.2 1.692,-7.128 2.808,-15.983 3.204,-26.027 0.216,-10.225 -0.216,-24.769 -1.692,-34.2 -1.512,-9.397 -4.032,-16.705 -7.416,-21.925 l 0,0 z m -123.623996,12.528 c -2.124,-0.432 -4.212,-0.144 -6.264,1.008 -2.16,1.152 -4.104,3.024 -6.228,5.761 l 0,0 -0.36,8.604 0,0 c 2.232,-3.42 4.248,-5.904 6.588,-7.452 2.196,-1.548 4.5,-2.268 6.768,-2.016 l 0,0 c -0.144,-1.945 -0.324,-3.925 -0.504,-5.905 l 0,0 z m -14.868,42.048 c 0,0 0.144,8.604 0.684,13.681 0.54,5.077 0.9,11.052 2.52,16.56 1.62,5.472 4.536,12.168 7.092,16.021 2.556,3.815 5.652,5.796 8.1,6.768 2.484,0.972 3.96,1.26 6.588,-1.008 2.664,-2.34 6.588,-6.912 9.144,-12.672 2.519996,-5.796 4.679996,-13.824 5.903996,-21.78 1.188,-7.992 1.98,-18.108 1.188,-25.668 -0.864,-7.56 -4.032,-16.776 -6.084,-19.26 -2.087996,-2.448 -4.283996,0.432 -6.263996,4.571 -1.98,4.141 -3.996,15.013 -5.4,20.089 -1.404,5.04 -1.044,7.92 -2.88,9.972 -1.836,1.979 -5.436,2.268 -8.1,2.016 -2.664,-0.252 -5.652,-1.979 -7.776,-3.563 -2.088,-1.551 -4.716,-5.727 -4.716,-5.727 l 0,0 z"
       style="fill-rule:evenodd;stroke:#000000;stroke-width:0.036;stroke-miterlimit:10"
       id="path11" />
    <path
       inkscape:connector-curvature="0"
       d="m 113.43309,280.97099 c -4.212,1.152 -7.884,2.34 -11.304,3.96 -3.563996,1.404 -6.515996,2.844 -8.999996,5.292 -2.484,2.448 -4.212,6.084 -5.472,9.504 -1.224,3.204 -1.8,5.904 -2.016,10.332 -0.396,4.428 -0.252,11.448 0,16.056 0.252,4.428 0.828,7.56 1.44,10.908 0.504,3.312 1.08,6.228 1.728,8.892 l 0,0 c 4.428,1.62 8.028,3.672 11.195996,5.76 3.096,2.124 5.472,4.896 7.416,7.056 1.908,2.125 3.132,3.96 3.816,5.652 l 0,0 c 2.7,-3.06 7.056,-5.508 13.212,-7.488 6.156,-2.016 13.86,-3.42 23.508,-4.356 l 0,0 c -6.229,-0.864 -10.944,-1.908 -14.544,-3.132 -3.564,-1.26 -5.796,-2.7 -6.696,-4.32 l 0,0 c -5.364,2.34 -9.792,3.744 -13.284,4.5 -3.6,0.576 -6.66,0.288 -7.776,-0.324 -1.116,-0.648 -0.864,-1.764 0.9,-3.348 l 0,0 c -2.196,0.288 -3.816,0.288 -4.716,0 -0.936,-0.432 -1.224,-1.296 -1.008,-1.908 0.144,-0.648 0.684,-1.188 1.764,-1.764 l 0,0 c -2.196,0.108 -3.527996,0 -4.139996,-0.612 -0.684,-0.72 -0.252,-2.016 0.468,-2.916 0.648,-0.9 1.763996,-1.584 3.491996,-2.196 l 0,0 c -1.8,-0.54 -2.915996,-1.224 -3.203996,-2.052 -0.324,-0.936 0.252,-2.196 1.151996,-3.096 0.828,-0.972 2.052,-1.944 3.672,-2.484 1.512,-0.684 3.276,-1.08 5.436,-1.332 l 0,0 c -0.36,-2.736 -1.188,-5.688 -2.484,-9.252 -1.404,-3.672 -3.816,-9.252 -5.436,-11.88 -1.655996,-2.628 -2.699996,-3.204 -4.247996,-3.96 -1.692,-0.972 -4.752,-0.72 -5.292,-1.044 -0.612,-0.468 0.864,-0.612 1.908,-0.72 1.008,-0.108 2.556,-0.108 4.104,0.576 1.404,0.648 2.879996,1.224 4.571996,3.672 1.62,2.412 3.6,6.912 5.256,10.728 1.656,3.672 2.988,7.488 4.428,11.448 l 0,0 c 2.34,0.396 4.32,0.828 6.084,1.296 1.692,0.396 2.808,0.684 4.32,1.44 1.512,0.684 2.952,1.692 4.608,2.88 l 0,0 c 5.4,-0.468 9.936,-0.756 14.04,-0.864 4.067,-0.18 7.271,-0.18 10.044,0 l 0,0 c 1.008,-4.644 2.592,-8.568 4.896,-11.772 2.232,-3.348 6.192,-6.228 8.677,-7.524 2.376,-1.224 4.752,-0.396 5.867,0 1.08,0.252 1.225,0.792 0.576,1.62 l 0,0 c 1.908,-0.036 2.988,0.252 3.528,0.72 0.396,0.468 0.252,1.26 -0.72,2.232 l 0,0 c 1.367,0.072 2.195,0.504 2.34,1.296 0.071,0.72 1.008,0.504 -1.477,3.24 -2.52,2.664 -7.02,6.768 -13.5,12.6 l 0,0 c -5.796,-0.324 -11.376,-0.324 -17.027,-0.144 -5.652,0.216 -11.125,0.612 -16.561,1.332 l 0,0 c 0.396,1.296 0.54,2.52 0.576,3.96 -0.036,1.404 -0.18,2.772 -0.576,4.248 l 0,0 c 3.528,2.376 8.028,4.32 13.356,5.688 5.399,1.368 11.448,2.232 18.684,2.592 l 0,0 c 1.44,-2.736 3.888,-4.716 7.74,-6.336 3.708,-1.656 8.64,-2.556 14.796,-3.096 l 0,0 c 2.088,-1.548 3.276,-4.428 3.564,-8.64 0.287,-4.392 -0.145,-10.368 -1.98,-16.668 -1.944,-6.372 -6.408,-15.48 -9.504,-20.664 -3.24,-5.256 -5.94,-7.92 -9.468,-10.332 -3.672,-2.484 -8.568,-3.6 -11.772,-4.32 -3.204,-0.756 -5.688,-0.9 -7.452,-0.288 l 0,0 c -1.872,2.808 -3.708,5.04 -5.508,6.84 -1.98,1.692 -3.42,3.06 -5.58,3.672 -2.232,0.504 -4.752,0.396 -7.164,-0.324 -2.412,-0.972 -4.86,-2.808 -7.2,-4.68 -2.411,-1.908 -4.715,-3.816 -7.055,-6.156 l 0,0 z"
       style="fill:#169253;fill-rule:evenodd;stroke:#000000;stroke-width:0.036;stroke-miterlimit:10"
       id="path13" />
    <path
       inkscape:connector-curvature="0"
       d="m 115.48509,280.64699 4.104,-1.008 0,0 c 1.836,1.584 3.6,2.628 5.436,3.672 1.8,0.828 3.564,1.692 5.292,1.908 1.548,0.144 2.736,0 4.392,-0.432 1.548,-0.54 3.312,-1.332 5.147,-2.52 l 0,0 c 0.685,-0.072 1.368,-0.072 1.908,0 0.54,0.072 1.08,0.072 1.477,0.288 l 0,0 c -1.225,1.836 -2.593,3.312 -4.248,4.572 -1.729,1.224 -3.457,2.376 -5.581,2.772 -2.232,0.252 -4.536,-0.036 -6.912,-1.008 -2.52,-1.044 -5.472,-3.492 -7.344,-4.86 -1.835,-1.404 -3.059,-2.484 -3.671,-3.384 l 0,0 z"
       style="fill:#169253;fill-rule:evenodd;stroke:#000000;stroke-width:0.036;stroke-miterlimit:10"
       id="path15" />
    <path
       inkscape:connector-curvature="0"
       d="m 123.26109,273.80699 c 0.072,0.864 0.072,1.836 0,2.772 -0.108,0.972 -0.396,1.908 -0.72,2.952 l 0,0 c 0.972,1.188 2.196,2.16 3.816,2.772 1.584,0.648 3.816,1.044 5.58,1.044 1.692,-0.18 3.204,-0.72 4.68,-1.764 l 0,0 c 0.144,-0.288 0.252,-0.828 0.324,-1.476 0.072,-0.72 0.072,-1.548 0.144,-2.628 l 0,0 c -2.268,0.72 -4.428,0.72 -6.768,0.144 -2.376,-0.648 -4.68,-1.872 -7.056,-3.816 l 0,0 z"
       style="fill:#ffdd9e;fill-rule:evenodd;stroke:#000000;stroke-width:0.036;stroke-miterlimit:10"
       id="path17" />
    <path
       inkscape:connector-curvature="0"
       d="m 113.21709,279.17099 c -2.988,-1.944 -5.58,-3.996 -7.776,-6.3 -2.376,-2.448 -4.284,-4.608 -5.436,-7.452 -1.079996,-2.844 -1.439996,-5.652 -0.935996,-9.252 0.504,-3.78 2.051996,-8.712 3.815996,-12.564 1.584,-3.815 3.168,-7.128 6.3,-10.08 3.204,-3.132 7.92,-6.228 12.636,-8.027 4.572,-1.873 10.332,-2.413 14.94,-2.593 4.536,-0.324 7.812,-0.217 12.06,1.151 4.141,1.368 9.145,4.284 12.637,7.2 3.312,2.844 5.651,5.58 7.452,9.756 1.8,4.068 2.663,9.972 2.88,14.652 0.036,4.536 -0.828,8.46 -2.592,12.888 -1.944,4.356 -4.645,8.784 -8.496,13.284 l 0,0 c -3.708,-0.972 -7.2,-1.656 -10.872,-1.908 -3.744,-0.288 -7.272,-0.144 -10.98,0.288 l 0,0 -0.648,-2.736 0,0 c 6.768,-2.088 12.024,-4.68 16.344,-7.488 4.176,-2.988 7.596,-6.192 8.892,-9.756 1.225,-3.6 -0.18,-7.38 -1.151,-11.196 -1.116,-3.852 -2.557,-7.632 -4.86,-11.484 l 0,0 0.576,4.32 0,0 c -0.973,-0.252 -2.124,-0.433 -3.313,-0.54 -1.332,-0.18 -2.556,-0.18 -4.104,-0.145 l 0,0 c -0.54,-1.691 -0.756,-3.312 -1.044,-5.004 -0.288,-1.764 -0.433,-3.42 -0.433,-5.256 l 0,0 c -0.647,2.557 -1.044,4.464 -1.188,6.156 -0.252,1.584 -0.252,2.664 0,3.384 l 0,0 c -1.8,-0.107 -3.168,-0.216 -4.536,-0.468 -1.368,-0.288 -2.448,-0.576 -3.384,-1.008 l 0,0 c -0.433,-1.404 -0.72,-2.88 -0.72,-4.429 -0.108,-1.619 0.035,-3.275 0.432,-5.111 l 0,0 c -0.792,1.8 -1.332,3.456 -1.62,5.111 -0.396,1.656 -0.36,3.133 -0.288,4.717 l 0,0 c -0.72,0.036 -1.656,-0.108 -2.952,-0.433 -1.368,-0.324 -2.844,-1.044 -4.824,-1.764 l 0,0 c -0.36,-0.792 -0.504,-1.584 -0.576,-2.521 -0.072,-0.972 0.072,-1.943 0.288,-3.06 l 0,0 c -0.648,1.872 -1.584,3.528 -2.664,4.824 -1.188,1.188 -2.376,2.268 -4.104,3.096 -1.836,0.864 -4.536,1.044 -6.3,2.34 -1.8,1.26 -3.492,2.7 -4.248,5.292 -0.864,2.556 -0.972,6.624 -0.468,9.828 0.504,2.988 1.872,6.156 3.564,8.532 1.548,2.376 3.6,4.284 6.012,5.724 l 0,0 c -0.18,0.972 -0.144,1.98 -0.288,3.168 -0.18,1.152 -0.144,2.34 -0.288,3.708 l 0,0 c -1.368,-0.252 -2.808,-0.252 -4.032,0 -1.26,0.148 -2.592,0.58 -3.708,1.156 l 0,0 z"
       style="fill:#feff48;fill-rule:evenodd;stroke:#000000;stroke-width:0.036;stroke-miterlimit:10"
       id="path19" />
    <path
       inkscape:connector-curvature="0"
       d="m 128.40909,237.66299 c -1.224,0.972 -2.556,2.052 -4.392,2.952 -1.908,0.863 -4.572,1.188 -6.336,2.628 -1.8,1.296 -3.672,2.736 -4.248,5.58 -0.684,2.88 -0.756,7.668 0.612,11.304 1.188,3.384 4.14,6.48 7.2,9.288 3.132,2.628 7.488,6.012 11.268,6.84 3.6,0.684 7.344,-0.936 10.548,-1.944 3.168,-1.008 5.221,-1.8 8.244,-3.78 2.952,-2.088 7.236,-5.796 9.252,-8.352 1.729,-2.592 2.412,-3.78 2.052,-6.912 -0.359,-3.276 -1.728,-7.2 -4.104,-12.168 l 0,0 c -6.552,-0.432 -11.736,-0.828 -15.696,-1.188 -4.032,-0.396 -5.76,-0.504 -8.1,-1.152 -2.448,-0.792 -4.5,-1.693 -6.3,-3.096 l 0,0 z"
       style="fill:#ffdd9e;fill-rule:evenodd;stroke:#000000;stroke-width:0.036;stroke-miterlimit:10"
       id="path21" />
    <path
       inkscape:connector-curvature="0"
       d="m 142.91709,245.47499 c 1.943,-0.432 3.527,-0.36 4.752,0.216 1.224,0.504 2.088,1.548 2.592,2.988 l 0,0 c -1.692,-0.828 -3.096,-1.224 -4.356,-1.332 -1.367,-0.108 -2.304,0.18 -3.239,0.864 l 0,0 c 0.07,-0.9 0.143,-1.8 0.251,-2.736 l 0,0 z"
       style="fill-rule:evenodd;stroke:#000000;stroke-width:0.036;stroke-miterlimit:10"
       id="path23" />
    <path
       inkscape:connector-curvature="0"
       d="m 136.22109,252.31499 c 2.16,2.196 3.348,3.888 4.104,5.076 0.611,1.044 0.575,1.368 -0.253,1.944 -0.791,0.612 -2.375,1.044 -4.607,1.584 l 0,0 c 1.404,-0.612 2.34,-1.296 2.808,-2.052 0.324,-0.72 0.288,-1.62 -0.108,-2.556 -0.36,-1.188 -1.008,-2.376 -1.944,-3.996 l 0,0 z"
       style="fill-rule:evenodd;stroke:#000000;stroke-width:0.036;stroke-miterlimit:10"
       id="path25" />
    <path
       inkscape:connector-curvature="0"
       d="m 127.47309,261.45899 c 2.484,3.456 4.716,5.796 6.84,6.876 2.016,1.08 4.032,0.288 5.652,-0.432 1.548,-0.828 2.988,-2.232 4.032,-4.356 l 0,0 c -1.98,2.088 -4.284,2.916 -7.056,2.628 -2.736,-0.36 -5.94,-1.98 -9.468,-4.716 l 0,0 z"
       style="fill-rule:evenodd;stroke:#000000;stroke-width:0.036;stroke-miterlimit:10"
       id="path27" />
    <path
       inkscape:connector-curvature="0"
       d="m 128.51709,251.05499 c 0,1.044 0.864,1.872 1.908,1.872 1.044,0 1.872,-0.828 1.872,-1.872 0,-1.044 -0.828,-1.908 -1.872,-1.908 -1.044,0 -1.908,0.864 -1.908,1.908 l 0,0 z"
       style="fill-rule:evenodd;stroke:#000000;stroke-width:0.036;stroke-miterlimit:10"
       id="path29" />
    <path
       inkscape:connector-curvature="0"
       d="m 143.06109,252.02699 c 0,1.044 0.864,1.908 1.908,1.908 1.044,0 1.872,-0.864 1.872,-1.908 0,-1.044 -0.828,-1.872 -1.872,-1.872 -1.044,0 -1.908,0.828 -1.908,1.872 l 0,0 z"
       style="fill-rule:evenodd;stroke:#000000;stroke-width:0.036;stroke-miterlimit:10"
       id="path31" />
    <path
       inkscape:connector-curvature="0"
       d="m 132.51309,243.71099 c -1.98,-0.18 -3.6,-0.108 -4.716,0.612 -1.188,0.684 -2.016,1.62 -2.34,3.204 l 0,0 c 1.512,-1.008 3.024,-1.476 4.248,-1.692 1.188,-0.252 2.376,0.036 3.276,0.576 l 0,0 c -0.144,-0.9 -0.288,-1.8 -0.468,-2.7 l 0,0 z"
       style="fill-rule:evenodd;stroke:#000000;stroke-width:0.036;stroke-miterlimit:10"
       id="path33" />
    <path
       inkscape:connector-curvature="0"
       d="m 81.213094,287.27099 c -0.9,-1.26 -1.188,-2.412 -0.864,-3.888 0.288,-1.44 1.188,-3.06 2.7,-4.716 l 0,0 c 1.62,0.792 3.024,1.728 4.068,3.204 1.08,1.296 1.764,3.636 2.34,5.076 0.432,1.44 0.756,2.52 0.684,3.384 l 0,0 c -0.864,0.612 -1.548,1.404 -2.196,2.52 -0.648,1.116 -1.26,2.376 -1.692,4.068 l 0,0 c -0.216,-3.384 -0.72,-5.868 -1.512,-7.452 -0.936,-1.656 -1.98,-2.34 -3.528,-2.196 l 0,0 z"
       style="fill:#c0c0c0;fill-rule:evenodd;stroke:#000000;stroke-width:0.036;stroke-miterlimit:10"
       id="path35" />
    <path
       inkscape:connector-curvature="0"
       d="m 154.47309,329.67899 c 0.145,-2.232 0.937,-4.248 2.232,-6.588 1.332,-2.34 3.744,-5.544 5.724,-7.092 1.872,-1.62 4.32,-2.412 5.4,-2.376 0.936,-0.108 1.044,0.756 0.323,2.196 l 0,0 c 2.269,-0.684 3.637,-0.756 4.248,-0.36 0.576,0.396 0.396,1.26 -0.684,2.736 l 0,0 c 1.764,-0.288 2.592,-0.072 2.88,0.504 0.108,0.504 0.648,0.432 -1.692,2.844 -2.447,2.34 -6.516,6.12 -12.491,11.34 l 0,0 c -1.513,-0.252 -2.7,-0.648 -3.708,-1.188 -0.972,-0.54 -1.764,-1.26 -2.232,-2.016 l 0,0 z"
       style="fill:#ffdd9e;fill-rule:evenodd;stroke:#000000;stroke-width:0.036;stroke-miterlimit:10"
       id="path37" />
    <path
       inkscape:connector-curvature="0"
       d="m 125.60109,332.88299 c -2.916,-1.368 -5.796,-2.484 -8.244,-3.06 -2.484,-0.72 -4.752,-1.044 -6.948,-0.828 -2.304,0.108 -5.328,1.044 -6.732,1.836 -1.404,0.72 -1.98,1.944 -1.872,2.7 -0.036,0.612 0.36,1.116 1.872,1.368 1.512,0.252 3.672,0.36 6.912,0.324 l 0,0 c -2.592,0.612 -4.68,1.188 -6.264,1.872 -1.584,0.612 -2.988,1.332 -3.384,2.016 -0.54,0.612 -0.936,1.368 0.18,1.692 1.044,0.252 3.024,0.144 6.084,-0.18 l 0,0 c -2.412,1.044 -3.744,1.908 -4.392,2.736 -0.612,0.756 -0.324,1.8 0.864,2.016 1.08,0.144 3.096,-0.144 5.904,-1.008 l 0,0 c -1.188,0.72 -1.872,1.548 -2.196,2.196 -0.396,0.684 -0.72,1.476 0.144,1.836 0.792,0.252 2.7,-0.036 4.752,-0.324 1.944,-0.54 4.572,-1.116 6.912,-1.872 2.16,-0.684 4.14,-1.512 6.084,-2.34 l 0,0 c 0.864,-1.836 1.26,-3.6 1.332,-5.436 0.036,-1.872 -0.252,-3.672 -1.008,-5.544 l 0,0 z"
       style="fill:#ffdd9e;fill-rule:evenodd;stroke:#000000;stroke-width:0.036;stroke-miterlimit:10"
       id="path39" />
    <path
       inkscape:connector-curvature="0"
       d="m 112.28109,367.08299 c 2.772,-3.096 6.192,-5.58 10.692,-7.452 4.428,-1.872 9.648,-3.168 15.66,-3.888 5.904,-0.936 13.752,-1.548 19.368,-1.296 5.508,0.072 10.008,0.468 13.5,2.592 3.348,2.088 6.84,4.104 6.876,10.332 -0.072,6.228 -4.393,16.992 -6.984,26.892 -2.7,9.828 -6.048,22.465 -8.532,31.681 -2.556,9.107 -4.571,16.487 -6.336,22.68 l 0,0 c -2.159,2.016 -4.644,2.88 -7.596,2.88 -2.988,-0.107 -6.372,-1.08 -10.152,-3.204 l 0,0 c -2.916,-6.264 -4.104,-14.58 -3.708,-25.487 0.396,-10.944 2.484,-24.049 6.264,-39.708 l 0,0 c -1.261,2.844 -3.636,5.075 -7.272,7.092 -3.636,1.943 -8.532,3.384 -14.544,4.464 l 0,0 c -0.72,-6.408 -1.728,-11.736 -2.88,-16.38 -1.26,-4.682 -2.664,-8.282 -4.356,-11.198 l 0,0 z"
       style="fill:#2161a1;fill-rule:evenodd;stroke:#000000;stroke-width:0.036;stroke-miterlimit:10"
       id="path41" />
    <path
       inkscape:connector-curvature="0"
       d="m 161.99709,352.75499 c 1.655,-1.728 3.779,-3.204 6.66,-4.428 2.771,-1.404 6.155,-2.556 10.151,-3.06 3.96,-0.504 9.433,-1.332 13.356,0.288 3.852,1.548 7.704,4.572 9.468,9.216 1.728,4.68 2.052,10.8 0.576,18.36 -1.729,7.416 -7.021,17.46 -10.332,25.561 -3.313,7.92 -6.3,14.436 -9.36,21.924 -3.24,7.452 -6.264,14.688 -9.468,22.284 l 0,0 c -1.656,0.144 -3.456,0.144 -5.4,0 -1.979,-0.145 -4.067,-0.576 -6.407,-1.009 l 0,0 c 1.943,-9.504 4.031,-18.432 6.407,-27.359 2.305,-9 5.256,-17.784 7.452,-25.668 2.052,-7.992 4.716,-15.948 5.22,-20.952 0.396,-5.04 -0.72,-6.229 -2.52,-8.568 -1.944,-2.412 -5.688,-4.356 -8.316,-5.436 -2.664,-1.117 -5.111,-1.549 -7.487,-1.153 l 0,0 z"
       style="fill:#2161a1;fill-rule:evenodd;stroke:#000000;stroke-width:0.036;stroke-miterlimit:10"
       id="path43" />
    <path
       inkscape:connector-curvature="0"
       d="m 66.813094,388.82699 c -2.124,6.696 -3.168,12.348 -3.672,21.24 -0.504,8.892 -0.324,21.96 0.54,31.428 0.648,9.252 1.404,16.92 3.924,24.12 2.52,7.2 6.984,15.156 11.016,18.612 3.888,3.275 8.1,3.707 12.204,1.151 3.996,-2.735 8.568,-7.775 11.771996,-17.208 2.988,-9.684 6.3,-25.956 6.588,-39.636 0.18,-13.824 -1.656,-30.636 -5.112,-41.544 -3.636,-10.908 -10.871996,-19.944 -15.731996,-22.824 -4.86,-2.88 -9.288,1.908 -12.852,6.048 -3.708,4.177 -6.552,11.809 -8.676,18.613 l 0,0 z m -7.596,-11.88 c -3.024,7.704 -5.4,16.704 -6.588,25.74 -1.224,8.819 -1.368,17.315 -0.576,27.287 0.648,10.009 2.052,22.393 4.896,32.148 2.916,9.684 7.308,19.548 12.348,25.56 4.86,5.832 11.376,9.685 16.92,9.469 5.472,-0.36 10.944,-4.141 16.019996,-11.34 5.04,-7.416 10.908,-19.368 13.86,-32.257 2.808,-13.031 4.176,-30.168 3.132,-44.748 -1.26,-14.724 -4.464,-32.075 -9.756,-42.191 -5.364,-10.116 -14.903996,-15.912 -21.527996,-17.532 -6.768,-1.512 -12.888,3.24 -17.784,8.028 -4.896,4.752 -8.028,12.06 -10.944,19.836 l 0,0 z"
       style="fill:#c0c0c0;fill-rule:evenodd;stroke:#000000;stroke-width:0.036;stroke-miterlimit:10"
       id="path45" />
    <path
       inkscape:connector-curvature="0"
       d="m 74.697094,426.30299 c 0,4.933 2.16,8.929 4.86,8.929 2.664,0 4.824,-3.996 4.824,-8.929 0,-4.932 -2.16,-8.928 -4.824,-8.928 -2.7,0 -4.86,3.996 -4.86,8.928 l 0,0 z"
       style="fill:#c0c0c0;fill-rule:evenodd;stroke:#000000;stroke-width:0.036;stroke-miterlimit:10"
       id="path47" />
    <path
       inkscape:connector-curvature="0"
       d="m 200.66109,348.97499 c 1.872,2.448 3.168,5.472 3.888,9.072 0.647,3.564 0.828,7.597 0.396,12.24 l 0,0 c 2.269,2.844 4.248,7.668 6.084,14.616 1.801,6.876 4.141,16.2 4.645,26.855 0.432,10.729 -1.008,26.82 -2.232,36.469 -1.439,9.323 -3.672,14.615 -5.724,19.764 -2.052,5.147 -3.96,8.244 -6.3,10.943 -2.557,2.557 -5.58,3.816 -7.956,4.608 -2.269,0.612 -3.96,0.504 -5.76,-0.18 -1.944,-0.72 -3.853,-1.908 -5.725,-3.708 l 0,0 -10.764,0.828 0,0 c 1.584,2.664 3.815,5.111 6.3,7.199 2.521,2.16 5.437,4.248 8.892,5.437 3.421,1.008 7.381,2.592 11.484,0.864 4.032,-1.908 8.712,-6.301 12.636,-11.772 3.816,-5.544 7.309,-12.023 10.044,-21.24 2.628,-9.468 4.969,-22.571 5.473,-34.451 0.324,-11.952 -1.656,-26.604 -3.168,-36.469 -1.62,-9.899 -4.177,-16.523 -6.301,-22.392 -2.268,-5.868 -4.247,-9.576 -6.911,-12.636 -2.701,-3.131 -5.653,-5.147 -9.001,-6.047 l 0,0 z"
       style="fill:#c0c0c0;fill-rule:evenodd;stroke:#000000;stroke-width:0.036;stroke-miterlimit:10"
       id="path49" />
    <path
       inkscape:connector-curvature="0"
       d="m 140.10809,452.58299 c 0.54,0.937 1.656,1.729 3.349,2.232 1.548,0.504 4.355,0.936 6.479,0.72 2.124,-0.36 4.068,-1.224 6.12,-2.592 l 0,0 c 5.076,3.023 9.145,5.868 12.204,8.531 3.06,2.593 5.148,5.005 6.12,7.236 0.792,2.16 1.044,4.68 -0.756,5.904 -1.944,1.116 -6.444,0.972 -10.188,0.936 -3.744,-0.071 -7.092,-0.144 -11.844,-1.476 -4.86,-1.44 -10.224,-3.744 -16.668,-7.056 l 0,0 c -0.072,-0.505 -0.18,-1.009 -0.18,-1.656 -0.072,-0.648 -0.072,-1.44 0,-2.232 l 0,0 c 3.996,2.592 7.56,4.464 11.125,5.76 3.384,1.188 5.939,1.62 9.611,1.837 3.601,0.107 7.452,0 11.845,-0.721 l 0,0 c -5.725,-0.216 -10.729,-0.828 -15.156,-1.691 -4.536,-1.009 -8.82,-2.628 -11.484,-3.889 -2.7,-1.332 -4.248,-2.628 -4.644,-3.888 l 0,0 c 0.432,-2.52 0.936,-4.428 1.656,-5.724 0.684,-1.295 1.44,-2.087 2.411,-2.231 l 0,0 z"
       style="fill:#ffffff;fill-rule:evenodd;stroke:#000000;stroke-width:0.036;stroke-miterlimit:10"
       id="path51" />
    <path
       inkscape:connector-curvature="0"
       d="m 160.66509,445.38299 c -0.612,0.648 -1.044,1.44 -1.296,2.376 -0.252,0.937 -0.36,1.944 -0.181,3.168 l 0,0 c 3.061,2.448 5.725,4.464 8.137,6.48 2.34,1.908 4.319,3.527 5.939,5.004 l 0,0 c 1.512,0.036 3.061,0.036 4.645,0 1.584,-0.036 2.987,-0.145 4.607,-0.18 l 0,0 c -0.864,0.504 -2.016,0.827 -3.312,1.115 -1.368,0.252 -3.024,0.324 -4.824,0.36 l 0,0 c 0.396,0.72 0.72,1.26 1.116,2.016 0.323,0.648 0.575,1.332 0.899,2.053 l 0,0 c 3.097,0.468 5.58,0.72 7.597,0.359 1.943,-0.396 3.348,-0.684 4.067,-2.231 0.612,-1.548 1.116,-4.969 0,-7.2 -1.224,-2.34 -3.815,-4.608 -6.66,-6.66 -2.951,-2.088 -6.336,-3.96 -10.548,-5.76 l 0,0 c -2.735,0.396 -5.004,0.576 -6.66,0.396 -1.69,-0.18 -2.915,-0.612 -3.526,-1.296 l 0,0 z"
       style="fill:#ffffff;fill-rule:evenodd;stroke:#000000;stroke-width:0.036;stroke-miterlimit:10"
       id="path53" />
    <path
       style="fill:#a0a0a0;stroke:none;stroke-width:1px;stroke-linecap:butt;stroke-linejoin:miter;stroke-opacity:1"
       d=""
       id="path5362"
       inkscape:connector-curvature="0" />
    <g
       id="g5393"
       transform="matrix(-1.4256823,0,0,1.4256823,180.98265,-45.645738)">
      <g
         id="layer1-3"
         transform="matrix(0.19585826,0,0,0.19585826,67.206419,168.58142)">
        <path
           sodipodi:nodetypes="ccccccccsccccscccccccsscsccsscscccscsccscccccscccccscccccccccsccccccsccsccsccscccccscccsccssccccscsccsccscccscccccccsccccssscccssscccccccccscscccscccccccccccccscccccccscccscccccccccccccccccssccccscsscccsccscsssscscccscccccccscsccsccccccccscsccccccscccsccccsccccscccscccccssccccsscccscccccccscccscccssccsssccsscscscccccccccccsscssccccsccccsccccccssccccccccccccccscccscscsccsccscscscccccccccccccsccscccscccccccsccccccccsscsscscccsssccssscssccscccsccccsscscscssscccccccccsccccscccccccccsscsccccscccscccscccccsscsssscssscccscccccccccccscccccccscsccccccccccccccssscsccccccscccscccccccccccccscccssccscsscccssccsscsscscccscsccsccsscsccccccccccccsscccsssscccscccccccsssccssssscsccscscsssssssssss"
           inkscape:connector-curvature="0"
           id="path3658"
           d="m -192.21366,33.753896 c -1.97494,-0.01334 -3.734,0.109941 -5.06929,0.374799 -1.91097,0.378949 -3.65404,0.648652 -3.87792,0.599719 -0.21588,-0.04893 -0.71961,0.03398 -1.1194,0.199893 -0.39978,0.165831 -2.46268,0.756554 -4.57354,1.299303 -2.11887,0.542669 -4.94136,1.391174 -6.30063,1.898982 -3.55009,1.330407 -12.8595,5.964163 -15.06472,7.496141 -1.03545,0.718815 -2.89605,1.967745 -4.14818,2.772914 -2.43229,1.565561 -11.51862,9.917883 -11.51862,10.59432 0,0.223081 -0.87793,1.675902 -1.94856,3.223872 -1.07142,1.54797 -2.71054,3.966674 -3.64844,5.37152 -1.83422,2.747328 -2.37233,2.85527 -2.87366,0.574892 -0.17591,-0.80197 -0.83875,-2.047702 -1.44882,-2.773713 -0.61088,-0.725211 -1.17378,-1.750261 -1.27452,-2.273181 -0.10075,-0.52292 -0.9411,-1.462416 -1.84941,-2.074088 -1.70309,-1.148185 -3.76998,-1.143387 -6.07115,0 -6.84752,3.400577 -5.81288,16.401607 1.92377,24.187033 l 1.77425,1.799036 -1.02505,2.72334 c -0.5605,1.499996 -1.37046,4.503985 -1.79903,6.671623 -1.11301,5.643379 -1.18257,5.701749 -3.27265,2.423501 -4.2881,-6.723595 -5.597,-8.963994 -5.597,-9.56927 0,-0.35501 -1.37206,-2.024515 -3.04876,-3.723604 -1.6767,-1.699089 -3.62766,-3.992259 -4.34727,-5.071681 -1.45842,-2.188427 -6.355,-6.971462 -7.12179,-6.971462 -1.08821,0 -0.32222,1.182566 2.84888,4.497588 7.80781,8.160426 9.72199,10.402424 11.16921,13.092981 0.84115,1.564762 1.83981,3.163904 2.22361,3.547699 0.38379,0.383794 0.69722,0.961084 0.69962,1.274516 0.002,0.313432 0.76999,1.52958 1.69909,2.698554 1.66391,2.092477 2.14685,3.422967 1.22414,3.422967 -0.25826,0 -2.26918,-1.36887 -4.4728,-3.047968 -2.20281,-1.6791 -5.53223,-4.028241 -7.39603,-5.222801 -1.863,-1.19376 -4.82222,-3.078349 -6.57088,-4.197749 -1.74866,-1.118601 -3.32862,-2.048502 -3.49812,-2.048502 -0.16951,0 -1.41924,-0.650851 -2.77372,-1.448823 -2.43389,-1.435231 -4.82221,-1.901381 -4.82221,-0.949891 0,0.683633 3.01518,2.465078 3.7228,2.198821 1.24174,-0.46695 11.60178,5.716935 18.78993,11.218786 2.52105,1.930167 4.75905,3.498127 4.97253,3.498127 0.758,0 4.04104,3.36939 3.84754,3.94828 -0.35981,1.07942 -1.09701,0.92431 -3.77238,-0.84994 -3.24466,-2.15165 -14.07325,-7.624716 -18.36535,-9.269434 -5.2332,-2.006125 -12.71559,-4.503986 -14.79207,-4.947748 -1.07654,-0.230276 -2.26119,-0.490137 -2.64882,-0.574892 -0.38755,-0.08475 -0.72457,0.175906 -0.72457,0.574892 0,0.470948 0.69394,0.841149 1.94895,1.049038 3.5437,0.589284 6.25705,1.364868 8.94561,2.549033 1.46321,0.645254 3.85713,1.536777 5.32114,1.974142 2.47228,0.738004 13.22891,5.815279 18.51568,8.744909 2.9856,1.65512 2.9856,2.37073 0,1.92377 -1.26492,-0.1887 -4.04263,-0.44376 -6.17189,-0.57409 -2.12926,-0.13033 -4.89978,-0.41498 -6.14711,-0.62526 -4.12819,-0.69483 -21.48288,-0.65485 -22.61268,0.0504 -0.5553,0.34701 -0.99922,0.7388 -0.99946,0.87473 -2.6e-4,0.13512 3.63717,0.1711 8.09566,0.0744 9.24864,-0.1983 28.02418,0.71801 30.73312,1.49999 1.83022,0.52772 2.34035,1.16178 1.22495,1.57356 -0.33262,0.12313 -3.34461,0.64765 -6.67162,1.14978 -5.68736,0.85874 -16.36163,3.27505 -19.5895,4.45042 -0.79878,0.28784 -2.9968,0.9275 -4.89738,1.42323 -4.32664,1.1194 -6.9713,2.21482 -6.9713,2.87046 0,0.27985 0.17518,0.50373 0.37484,0.50373 0.4129,-0.008 7.84619,-2.10287 10.04501,-2.82248 0.79797,-0.27186 2.4251,-0.71962 3.62286,-1.00746 1.19776,-0.27985 3.70841,-0.95949 5.57221,-1.4952 8.7737,-2.53464 17.96477,-4.16417 18.81472,-3.34861 0.81396,0.78278 -0.59568,1.71509 -4.64791,3.07676 -4.92696,1.64711 -11.99357,4.93335 -11.99357,5.57301 0,0.97547 1.08821,1.07142 2.09887,0.16791 0.57969,-0.51173 2.67617,-1.60714 4.6727,-2.4227 9.56607,-3.90991 9.6948,-3.9259 9.6948,-1.871 0,0.84754 -0.75719,1.53518 -3.27344,3.02238 -1.79664,1.06343 -3.65644,2.07888 -4.12259,2.24679 -0.46615,0.17591 -0.84915,0.66365 -0.84915,1.10341 0,0.67164 0.27106,0.63167 1.82382,-0.30383 5.11806,-3.08635 6.02557,-3.49413 6.39657,-2.89445 0.2023,0.32782 0.48294,2.43069 0.62447,4.69348 0.14152,2.26279 0.47894,4.34967 0.75,4.62153 0.27025,0.27185 1.4784,0.59168 2.67296,0.72761 1.89099,0.21588 2.49387,0.032 4.74786,-1.44723 1.42324,-0.94349 5.27077,-3.07835 8.54502,-4.72547 6.72919,-3.39018 6.81874,-3.36619 11.06926,-0.11993 1.15219,0.87153 2.27239,1.59914 2.49866,1.59914 0.22628,0 1.38006,0.81556 2.54824,1.82302 1.16897,0.99947 3.09674,2.4387 4.27291,3.19829 1.17697,0.75959 4.54476,3.71801 7.49518,6.57248 4.92536,4.75745 7.54795,6.84433 7.54795,6.02077 0,-0.1839 -2.0389,-2.40671 -4.50158,-4.92536 -4.82941,-4.94935 -13.88216,-12.00956 -19.56152,-15.23983 -1.94455,-1.11141 -3.52291,-2.27878 -3.52291,-2.59861 0,-0.61567 2.44589,-1.62313 3.89791,-1.62313 1.50559,0 15.92427,7.53196 16.64388,8.69134 0.14392,0.23987 1.39925,0.97548 2.7985,1.64712 3.5501,1.72707 8.65936,4.98133 9.81874,6.25265 1.72707,1.89498 4.93335,3.03837 3.91789,1.39925 -0.33581,-0.55171 -8.88323,-6.39657 -9.33899,-6.39657 -0.1839,0 -1.03145,-0.53572 -1.90298,-1.19936 -0.87153,-0.67164 -1.71908,-1.19936 -1.871,-1.19936 -0.15191,0 -1.96694,-1.07142 -4.02184,-2.35074 -2.06289,-1.28731 -5.82008,-3.3582 -8.34832,-4.62152 -2.52905,-1.26332 -4.76945,-2.50266 -4.99732,-2.72654 -0.22788,-0.22388 0.0896,-0.73561 0.72441,-1.15138 0.85234,-0.55171 2.00292,-0.70362 4.34727,-0.54371 4.38804,0.28785 5.74732,0.87953 5.74732,2.47067 0,0.91951 0.1839,1.19936 0.70362,0.99947 0.95948,-0.3678 1.44722,0.52772 0.7436,1.37526 -0.31183,0.3758 -0.41578,0.91951 -0.24787,1.19936 0.42378,0.67963 1.69509,0.63966 1.69509,-0.048 0,-0.91951 1.63113,-1.863 2.27878,-1.32729 0.39979,0.32782 0.73561,0.17591 1.1274,-0.5517 0.3678,-0.69563 0.79957,-0.9435 1.34328,-0.71962 0.44776,0.17591 2.01492,0.64765 3.47813,1.02345 2.87846,0.73561 5.52504,1.77505 11.06607,4.37366 3.45415,1.61513 4.38965,1.79104 3.70202,0.67164 -0.48774,-0.78358 -5.66897,-3.11033 -10.39443,-4.64551 -6.73239,-2.19083 -6.30062,-1.91897 -6.30062,-3.99786 0,-2.34274 0.9195,-3.23107 6.04476,-5.79849 9.61084,-4.81582 11.52981,-5.54103 14.76808,-5.69775 14.60817,-0.70282 16.87095,-0.69562 17.69451,0.12554 0.7516,0.75799 0.63966,0.96348 -1.6791,3.04796 -1.35927,1.22655 -2.47067,2.47788 -2.47067,2.7985 0,0.35741 0.7356,0.59968 1.92696,0.59968 1.63113,0 1.94296,0.15512 1.94296,0.99947 0,0.78118 -0.21588,0.94029 -0.97547,0.69962 -1.26333,-0.40138 -1.85501,0.98667 -0.84755,2.00213 0.59968,0.59168 0.95149,0.63965 1.82302,0.1759 0.78358,-0.42377 1.21535,-0.43976 1.59915,-0.056 0.98347,0.98348 1.77504,0.5677 1.77504,-0.9195 0,-0.97068 -0.23987,-1.45203 -0.72761,-1.45203 -0.93549,0 -0.90351,-0.71481 0.056,-1.6743 1.06343,-1.06423 1.66311,-0.9259 1.67111,0.35021 l 0,1.07383 0.87953,-1.1242 c 0.67963,-0.88352 1.56716,-1.21615 4.22173,-1.54877 1.84701,-0.23267 4.88538,-0.68443 6.74039,-1.02505 1.863,-0.34062 4.79743,-0.62446 6.5245,-0.62446 5.55702,-8e-4 15.23983,2.62099 22.98768,6.24865 9.10712,4.26171 12.76116,6.12471 13.28887,6.77237 0.34382,0.39978 0.87953,0.7436 1.19936,0.7436 1.21535,0 12.23344,8.74731 15.143882,12.02555 1.66311,1.863 3.02238,3.59807 3.02238,3.84594 0,0.23987 0.46375,0.83955 1.02345,1.35127 0.9435,0.84755 1.76706,2.16684 4.6775,7.61992 1.03944,1.94296 3.77397,9.90669 3.62205,10.53835 -0.04,0.1759 0.13593,1.05543 0.39979,1.95095 0.26386,0.89552 0.47175,4.57355 0.47175,8.17162 0.008,6.17269 -0.088,6.80435 -1.64712,11.44187 -2.0469,6.10073 -3.50212,8.82726 -7.89177,14.69612 -5.477062,7.30008 -10.434402,11.16201 -20.245152,15.73556 -9.09912,4.25372 -18.22223,6.48453 -26.98553,6.60446 -6.92429,0.088 -12.40935,-0.27985 -15.1119,-1.00746 -1.06343,-0.27985 -3.90191,-0.99147 -6.30062,-1.56716 -8.53143,-2.07089 -21.02873,-9.12311 -21.83629,-12.34538 -0.15992,-0.63166 -0.53572,-1.32729 -0.84755,-1.52718 -0.94349,-0.58369 -3.02238,-3.5501 -4.39764,-6.29263 -1.05544,-2.11087 -1.29531,-3.20628 -1.27932,-6.19668 0.016,-1.99892 0.17591,-4.43762 0.35182,-5.42109 0.48773,-2.75852 3.01438,-7.14817 5.34913,-9.29901 2.45468,-2.26279 2.69455,-3.39818 0.77558,-3.39818 -1.81502,0 -6.38058,4.87738 -8.37151,8.92321 -2.4307,4.94135 -3.00639,12.83312 -1.3033,17.71051 0.77558,2.21481 2.35873,4.78943 5.52504,8.9472 1.41524,1.863 2.86246,3.75799 3.19828,4.19775 1.60714,2.14285 9.08313,6.54849 14.14442,8.34753 2.12686,0.75959 4.19775,1.6711 4.59753,1.99893 0.87154,0.71961 2.91844,1.09541 7.74785,1.47121 1.99093,0.15991 4.07782,0.59168 4.64551,0.95149 0.5677,0.3598 2.4307,0.71961 4.11779,0.79957 7.55595,0.35981 11.02609,0.30384 13.92054,-0.15192 1.70309,-0.26386 4.30969,-0.59968 5.79689,-0.7516 1.48721,-0.14392 4.55756,-0.82356 6.82035,-1.4952 2.26278,-0.67164 4.77344,-1.31929 5.57301,-1.42323 2.32675,-0.31184 5.23719,-1.24733 6.54849,-2.10288 0.66364,-0.43176 2.50266,-1.42323 4.0938,-2.2228 4.18976,-2.10288 6.94828,-3.90191 9.618852,-6.29263 1.2953,-1.15938 2.5986,-2.13486 2.90244,-2.15085 0.63166,-0.032 5.35713,-5.82088 7.6439,-9.39496 4.46961,-6.97226 6.03677,-10.57833 8.24358,-18.89387 0.83955,-3.12633 1.01546,-5.20521 0.99947,-10.89016 -0.024,-10.21053 -1.82302,-17.33471 -6.56448,-25.89012 -1.95895,-3.51012 -5.50105,-8.53943 -7.59593,-10.8182 -0.67164,-0.71962 -1.94296,-2.28678 -2.85447,-3.47014 -1.94296,-2.53465 -9.994642,-9.60285 -14.816062,-13.01782 -6.23665,-4.42323 -5.81288,-3.85714 -6.49252,-8.47066 -0.89552,-6.001585 -3.82994,-16.077784 -5.17322,-17.740092 -0.30384,-0.371801 -0.70363,-1.208952 -0.90352,-1.874196 -1.27931,-4.389646 -6.55648,-13.720644 -11.73771,-20.788855 -4.11779,-5.609793 -14.84804,-15.756353 -18.99781,-17.940782 -0.66365,-0.350212 -2.89445,-1.893385 -4.96534,-3.447752 -2.07089,-1.554367 -4.1018,-2.823686 -4.50159,-2.823686 -0.39179,0 -1.08741,-0.200613 -1.55117,-0.449759 -0.94349,-0.508767 -6.13271,-2.842476 -7.61991,-3.423125 -4.45361,-1.739707 -12.3214,-2.933387 -18.23822,-2.973446 z m 1.07142,2.948419 c 7.34806,-0.04438 17.95038,2.732216 24.91465,6.521704 4.85339,2.640185 8.9472,5.237193 8.9472,5.672159 0,0.22548 0.21588,0.399786 0.47175,0.399786 0.47174,0 3.03037,1.8654 7.57194,5.546627 3.59007,2.908041 8.84326,8.43148 10.6183,11.169212 0.87154,1.34248 1.92697,2.744129 2.35074,3.098339 0.42378,0.353411 0.77559,0.929902 0.77559,1.273717 0,0.344615 0.16791,0.686032 0.3758,0.774785 0.39978,0.172707 3.82195,5.235593 4.82141,7.121782 4.13379,7.808614 9.31501,23.977544 9.31501,29.083614 0,2.9712 0.56769,3.77077 4.4776,6.32221 1.77505,1.16017 2.28677,1.92776 1.31929,1.92776 -0.26386,0 -0.47175,0.31983 -0.47175,0.71962 0,0.39978 0.20789,0.72761 0.47175,0.72761 0.27186,0 0.50373,-0.23188 0.50373,-0.50373 0,-1.1194 2.33475,-0.32783 4.46961,1.50319 1.26332,1.07942 2.30276,2.14285 2.30276,2.35074 0,0.19989 -0.52772,0.62367 -1.17537,0.96748 -1.05543,0.5677 -1.47921,0.46375 -3.99786,-0.94349 -1.55116,-0.87154 -2.99039,-1.863 -3.19828,-2.23081 -0.21589,-0.3598 -0.65565,-0.65564 -0.97548,-0.64765 -0.31983,0.008 -2.52664,-0.95948 -4.92536,-2.15085 -9.95466,-4.91656 -14.97597,-7.02023 -20.3331,-8.51623 -8.56341,-2.38912 -11.72971,-2.83128 -12.14549,-1.74946 -0.3598,0.94109 -2.20681,1.51758 -7.61991,2.44908 -2.35074,0.40459 -5.2212,1.16338 -6.37259,1.67431 -1.863,0.82356 -2.14285,0.84514 -2.39871,0.1743 -0.24787,-0.63965 -0.46375,-0.57729 -1.47921,0.375 -0.65564,0.61887 -1.19935,0.89072 -1.19935,0.62447 0,-0.26626 0.53571,-0.97388 1.19935,-1.59915 0.67164,-0.62526 1.23134,-1.44562 1.23134,-1.79903 0,-0.7428 4.12579,-0.92271 4.57355,-0.19989 0.15192,0.25666 0.82356,0.26465 1.59914,0.0256 0.72761,-0.22708 2.22281,-0.63646 3.34221,-0.92511 1.1194,-0.28864 2.38273,-0.85314 2.77452,-1.24893 0.63965,-0.63806 0.62366,-0.95149 -0.15192,-2.67376 -0.47975,-1.06983 -1.18337,-2.199626 -1.56716,-2.523452 -0.79957,-0.668442 -2.9904,-4.009051 -3.47814,-5.322747 -0.1759,-0.478943 -0.43976,-2.178832 -0.59968,-3.772378 -0.3598,-3.560491 0.32783,-4.86779 3.42217,-6.321411 3.34221,-1.569558 2.57462,-2.76092 -0.97548,-1.524782 -6.86832,2.395516 -7.22013,11.282751 -0.67164,16.790998 0.77559,0.65405 1.39925,1.523182 1.39925,1.924572 0,0.40058 0.23188,0.85954 0.50373,1.02425 0.89552,0.5565 0.47175,1.19935 -0.77558,1.19935 -1.03145,0 -1.18337,-0.16471 -0.92751,-0.97467 0.16791,-0.53891 0.11994,-0.92351 -0.10394,-0.87473 -0.21588,0.0488 -0.79957,-0.10795 -1.29531,-0.32463 -0.61567,-0.26626 -1.03944,-0.14552 -1.2953,0.32463 -0.32783,0.58448 -2.58262,0.66444 -13.96851,0.57489 -7.476,-0.0592 -13.8006,-0.23428 -14.07246,-0.39979 -0.26386,-0.16551 -0.47175,-0.81956 -0.47175,-1.44962 0,-2.089281 -4.33367,-6.023971 -5.97279,-5.421894 -0.31184,0.115938 -1.38326,-0.229477 -2.37473,-0.774785 -1.75106,-0.961085 -1.84701,-0.982673 -2.7985,-0.124733 -0.53571,0.486939 -0.97548,1.328888 -0.97548,1.849409 0,0.81956 0.23188,0.899517 1.70309,0.624465 2.50266,-0.470148 4.77344,0.127132 6.49252,1.699089 1.37526,1.252928 1.4952,1.625528 1.32729,3.622859 -0.15992,1.84221 -0.42378,2.32755 -1.52718,2.89845 -0.72761,0.37979 -1.54318,0.69962 -1.82303,0.69962 -0.27985,0 -0.85554,0.30704 -1.27132,0.67484 -0.42377,0.3678 -1.31129,0.82436 -1.97494,1.02425 -1.19136,0.35661 -1.21535,0.34062 -0.35181,-0.62447 1.1274,-1.26492 0.60768,-1.56636 -1.95095,-1.09941 -2.15085,0.39419 -3.77398,-0.23507 -3.77398,-1.49919 0,-0.41098 -0.84754,-0.76279 -2.39871,-0.94989 -1.32729,-0.16072 -2.51066,-0.22069 -2.59061,-0.14952 -0.088,0.0712 0.21588,0.68603 0.67164,1.37446 0.56769,0.86753 1.25532,1.24893 2.2228,1.24893 2.12686,0 1.64712,0.84035 -0.67164,1.19936 -1.13539,0.1751 -3.06235,0.63086 -4.30169,1.02505 -1.46322,0.46455 -3.42217,0.63965 -5.57301,0.49893 -4.03704,-0.26386 -15.55726,1.25373 -18.8379,2.47387 -1.69749,0.63167 -2.37233,1.15059 -2.37393,1.79904 -8e-4,0.50133 -0.29264,0.98907 -0.62447,1.09941 -0.33182,0.11034 -0.59967,-0.14472 -0.59967,-0.57489 0,-0.42937 -0.3838,-0.92431 -0.84915,-1.09861 -0.46615,-0.17511 -1.08262,-0.63486 -1.37446,-1.02505 -0.29265,-0.38939 -0.76679,-0.53971 -1.07463,-0.34942 -0.38699,0.23908 -0.1791,0.84595 0.69963,1.99893 0.80757,1.05784 1.03065,1.67191 0.62446,1.67191 -0.48933,0 -0.48614,0.11194 -0.0496,0.5517 0.43657,0.43976 0.41578,0.7436 -0.0248,1.27132 -0.45495,0.5517 -0.40538,0.82356 0.24947,1.3033 1.10741,0.80757 1.06183,1.18337 -0.12473,0.87153 -0.5629,-0.14392 -0.97468,0 -0.97468,0.32783 0,0.31183 -0.20629,0.41577 -0.47495,0.24786 -0.66684,-0.40778 -2.10367,1.10341 -1.79903,1.90298 0.15831,0.40779 -0.59248,0.99947 -2.12366,1.67111 -2.85607,1.24733 -3.25106,1.26333 -4.37286,0.24787 -1.19376,-1.07943 -2.46108,-0.51973 -2.09887,0.9275 0.19829,0.79158 -0.068,1.4952 -0.92431,2.4227 -1.23294,1.32729 -1.81822,1.58316 -2.39871,0.99947 -0.60848,-0.60768 -0.32623,-2.09488 0.39978,-2.09488 1.06503,0 0.88273,-1.66311 -0.29984,-2.72654 -0.97227,-0.87953 -1.01305,-1.23934 -0.77478,-7.44401 0.25746,-6.68522 0.7492,-9.90029 2.34914,-15.569255 0.49973,-1.77185 0.89952,-3.735597 0.89952,-4.372855 0,-0.637259 0.19269,-1.371265 0.42457,-1.62393 0.35261,-0.385393 2.41071,-6.623649 2.69855,-8.195606 0.41498,-2.268384 8.16603,-16.000223 11.49384,-20.339497 1.02105,-1.330486 2.64658,-3.433359 3.59807,-4.697481 0.95149,-1.264123 2.03411,-2.298768 2.4235,-2.298768 0.39019,0 0.60288,-0.202292 0.45016,-0.449359 -0.15352,-0.247867 0.59968,-1.190562 1.69909,-2.074088 1.09861,-0.883527 2.82249,-2.308363 3.82275,-3.173499 1.00027,-0.865136 2.07329,-1.574356 2.37393,-1.574356 0.30064,0 0.54931,-0.171908 0.54931,-0.399786 0,-1.04344 14.28754,-8.755306 17.78966,-9.594856 0.71961,-0.172707 1.855,-0.587685 2.52664,-0.924304 1.99893,-1.004422 12.97705,-2.618757 17.91044,-2.648595 z m -68.18584,26.160376 c 0.26945,0 -0.21429,0.976277 -1.07383,2.174035 -0.86034,1.197758 -1.76225,2.174034 -1.99893,2.174034 -0.50133,0 -0.1831,-0.600478 1.42404,-2.773713 0.63966,-0.865136 1.38006,-1.574356 1.64872,-1.574356 z m -2.94802,0.474946 c 0.35501,-0.05757 0.13033,0.757194 -0.82436,2.098874 l -1.27452,1.774249 1.17457,1.248931 c 0.90752,0.966681 1.13779,1.721477 1.07383,3.373391 -0.0448,1.168974 -0.26146,2.40751 -0.47415,2.748127 -0.21349,0.341417 -0.39259,0.923505 -0.39979,1.300103 -0.007,0.375799 -0.23427,0.751597 -0.52531,0.849145 -0.30624,0.103145 -0.88673,-1.304901 -1.37367,-3.373392 -0.96828,-4.111396 -0.59168,-6.636442 1.37367,-8.920018 0.61247,-0.711618 1.03704,-1.065029 1.24973,-1.09941 z m 4.34727,0.474945 c 0.26625,0 0.47494,0.107143 0.47494,0.22468 0,0.117537 -0.20869,0.33502 -0.47494,0.499732 -0.26546,0.164711 -0.47415,0.08235 -0.47415,-0.199893 0,-0.282249 0.20869,-0.524519 0.47415,-0.524519 z m 43.52706,0.999464 c -0.45575,0.004 -1.02345,0.04158 -1.75106,0.09995 -3.60607,0.289444 -5.35713,1.421637 -8.69134,5.621786 -2.81849,3.541301 -3.55569,4.986127 -4.37446,8.495446 -0.58128,2.489865 -0.57489,2.973605 0.0248,3.573284 1.06263,1.06263 1.57276,0.384594 2.22361,-2.923233 0.64605,-3.28384 1.45922,-5.160434 2.64578,-6.147105 1.09541,-0.907513 0.97548,0.01679 -0.3678,3.02318 -0.62367,1.380859 -1.39046,3.297432 -1.70309,4.248122 -0.57169,1.740667 -0.77798,5.771306 -0.29984,5.771306 0.14153,0 1.02185,-0.326225 1.97095,-0.724411 1.1194,-0.46695 1.63912,-0.966682 1.4792,-1.39925 -0.14392,-0.367803 -0.016,-0.911511 0.27186,-1.199357 0.3758,-0.3734 0.35181,-0.731608 -0.0959,-1.274517 -0.7436,-0.887524 -0.70362,-0.945893 1.19935,-1.573556 0.85555,-0.284648 1.39126,-0.773186 1.3193,-1.199357 -0.064,-0.394989 0.44776,-0.963484 1.12739,-1.274517 0.67964,-0.311033 1.10341,-0.753196 0.95149,-0.999464 -0.15192,-0.246268 -0.0799,-0.583687 0.14393,-0.724412 0.23187,-0.141524 0.37579,-0.956287 0.32782,-1.824622 -0.072,-1.151383 0.1919,-1.819824 1.02345,-2.473074 2.34275,-1.843012 0.71962,-3.558093 -1.92697,-2.023715 -0.83155,0.48534 -1.6631,1.106607 -1.84701,1.373663 -0.56769,0.855542 -1.91897,0.775585 -1.75106,-0.09995 0.21589,-1.097012 4.6775,-3.949882 6.17269,-3.947484 1.94296,0.0024 4.09381,1.613535 4.90138,3.673231 0.43177,1.096212 0.71961,3.299032 0.69562,5.271574 -0.032,2.936826 -0.28784,3.941087 -2.02291,7.521568 -1.09541,2.270782 -2.34275,4.416032 -2.77451,4.771842 -1.03945,0.865136 -0.99947,2.51705 0.0799,2.798499 0.63966,0.16871 0.90352,0.762792 0.97548,2.349141 0.048,1.169773 -0.14392,2.262787 -0.39979,2.423501 -0.26385,0.160714 -0.47974,0.474146 -0.47974,0.724412 0,0.803569 1.18337,0.481342 2.55063,-0.724412 1.36727,-1.206553 1.71908,-2.604204 0.84755,-3.473338 -0.33582,-0.337419 -0.1919,-0.769987 0.47974,-1.374463 0.53572,-0.486939 0.96748,-1.277715 0.96748,-1.748663 0,-0.470947 0.5597,-1.525582 1.25533,-2.348341 1.38326,-1.643119 1.26332,-2.924032 -0.27985,-2.924032 -0.95948,0 -0.95948,-0.06237 -0.19989,-1.823823 0.43177,-0.997865 0.95149,-2.485067 1.15138,-3.323018 0.19989,-0.837951 0.71962,-2.030112 1.15138,-2.64898 1.10341,-1.575156 1.03945,-4.146577 -0.12793,-4.772642 -0.51172,-0.273453 -1.16737,-1.252928 -1.47121,-2.173235 -0.30384,-0.920306 -1.35927,-2.353938 -2.32675,-3.198285 -1.24733,-1.093814 -1.67111,-1.411243 -3.04638,-1.399249 z m -40.70298,2.398714 c 0.13273,0 -0.16791,0.442163 -0.65005,0.973878 -0.48134,0.532515 -0.99147,0.949891 -1.1242,0.949891 -0.13273,0 0.16791,-0.417376 0.65005,-0.949891 0.48135,-0.531715 0.99067,-0.973878 1.1242,-0.973878 z m 89.7279,0.749199 c -1.47121,-0.05437 -3.71801,2.0509 -2.97441,2.948819 0.41578,0.498932 0.87953,0.382994 2.27878,-0.499732 2.14285,-1.356073 2.40671,-2.023715 0.97548,-2.398714 -0.0959,-0.02399 -0.17591,-0.04638 -0.27985,-0.05037 z m -89.37609,2.724139 c 0.10475,-0.0064 0.072,0.190298 -0.1751,0.649252 -0.28625,0.532515 -1.17777,1.71668 -1.99893,2.648181 l -1.4984,1.699888 0.97388,-1.749462 c 0.82196,-1.460817 2.38512,-3.229469 2.69855,-3.247859 z m 90.77534,1.373664 c -0.60767,-0.115138 -1.75906,0.792375 -1.91897,1.624729 -0.088,0.436566 0.056,0.773985 0.29584,0.773985 0.69563,0 2.2308,-1.890187 1.84701,-2.273981 -0.056,-0.05997 -0.13593,-0.107942 -0.22388,-0.124733 z m -57.04142,2.4243 c 0.23187,0 0.31183,0.16791 0.11993,0.474146 -0.15991,0.266257 -0.67164,0.478943 -1.1194,0.474945 -0.70362,-0.0064 -0.72761,-0.07036 -0.10394,-0.474945 0.47974,-0.306236 0.87153,-0.474146 1.10341,-0.474146 z m 56.6976,1.024251 c -0.0799,-0.01119 -0.1759,-0.0096 -0.27985,0.02479 -0.3598,0.119136 -0.72761,0.625265 -0.82355,1.09941 -0.10395,0.551705 0.0799,0.763591 0.49573,0.624466 0.35981,-0.119136 0.71162,-0.599679 0.79957,-1.074624 0.088,-0.413379 0.024,-0.641256 -0.1919,-0.674042 z m -49.70135,0.924305 c -0.55171,0.03918 -1.32729,0.509327 -1.32729,0.949091 0,0.358208 0.32782,0.350212 1.02345,-0.02479 0.5597,-0.296641 0.89552,-0.654849 0.7516,-0.799571 -0.0959,-0.09915 -0.26386,-0.137527 -0.44776,-0.12473 z m -47.07557,0.149519 c 0.0648,-0.02159 0.10955,-0.01519 0.14952,0.02559 0.16232,0.162313 -0.0935,0.69003 -0.57489,1.148984 -0.83555,0.798772 -0.85394,0.781181 -0.29904,-0.299839 0.23908,-0.466151 0.53012,-0.807568 0.72441,-0.874735 z m 5.597,0.300639 c 0.26626,0 0.47495,0.22388 0.47495,0.474146 0,0.250266 -0.20869,0.585286 -0.47495,0.749998 -0.26625,0.163912 -0.47494,-0.05997 -0.47494,-0.474945 0,-0.414978 0.20869,-0.749199 0.47494,-0.749199 z m 33.15503,0.973878 c 0.13593,0.02639 0.22388,0.162313 0.22388,0.374999 0,0.199893 -0.24787,0.424573 -0.54371,0.524519 -0.30384,0.09995 -0.45575,-0.05037 -0.35181,-0.349413 0.12793,-0.379796 0.44776,-0.593282 0.67164,-0.550105 z m 58.12084,0.474946 c -0.99147,0 -1.27132,0.247067 -1.27132,1.124197 0,0.612472 -0.24786,1.348077 -0.5517,1.649516 -0.30384,0.301438 -0.40778,0.906714 -0.24787,1.32409 0.36781,0.960285 1.46322,0.968281 2.2468,0.02479 0.32782,-0.398987 0.90351,-0.724412 1.27132,-0.724412 0.3678,0 0.67963,-0.208688 0.67963,-0.474946 0,-0.266257 -0.35181,-0.499732 -0.75159,-0.499732 -0.54371,0 -0.64766,-0.306235 -0.42378,-1.199357 0.26386,-1.058632 0.15192,-1.224143 -0.95149,-1.224146 z m -68.66319,0.499732 c -0.78838,0 -1.55436,2.157243 -1.04984,2.973606 0.42058,0.679635 1.04984,-0.03118 1.44963,-1.649516 0.24866,-1.005861 0.14952,-1.32409 -0.39979,-1.32409 z m -2.49866,1.124197 c -0.14472,0.02719 -0.31903,0.169509 -0.57489,0.424572 -0.59728,0.59808 -0.65965,0.961885 -0.22468,1.774249 0.54611,1.020253 1.97414,1.43603 1.97414,0.574892 0,-0.248667 -0.22308,-1.04504 -0.49973,-1.774249 -0.28545,-0.749198 -0.43337,-1.04424 -0.67484,-0.999464 z m -8.84486,8.645765 c -0.1879,-0.008 -0.31103,0.218283 -0.45016,0.749198 -0.15511,0.594082 -0.58128,1.099411 -0.94909,1.099411 -0.3686,0 -0.67483,0.325426 -0.67483,0.724412 0,1.055434 0.64925,0.884326 1.94855,-0.498933 0.89872,-0.957087 1.01386,-1.335284 0.55011,-1.799035 -0.17431,-0.174307 -0.31264,-0.270255 -0.42458,-0.275053 z m -3.07355,3.772378 c -0.28225,0 -0.38939,0.208688 -0.22548,0.474945 0.16471,0.266257 0.40778,0.499732 0.52532,0.499732 0.11754,0 0.19989,-0.233475 0.19989,-0.499732 0,-0.266257 -0.21828,-0.474945 -0.49973,-0.474945 z m -1.04984,1.624729 c -0.14312,0.02479 -0.28384,0.294242 -0.57489,0.849145 -0.32942,0.630861 -0.53011,1.324889 -0.42457,1.523983 0.27665,0.52132 0.83155,0.443762 1.47441,-0.199893 0.39978,-0.399786 0.41498,-0.817162 0.0504,-1.498397 -0.24707,-0.461353 -0.38219,-0.700424 -0.52535,-0.674838 z m 14.66734,1.348877 c -0.22708,0.02878 -0.43417,0.134328 -0.62446,0.325425 -0.3814,0.380596 -0.3726,0.734806 0.0752,1.273717 0.87633,1.056234 1.97334,0.937898 1.97334,-0.224679 0,-0.861938 -0.742,-1.459218 -1.42408,-1.374463 z m -7.62071,0.599678 c -1.88459,0.135927 -3.23347,0.934699 -4.52238,2.57382 -0.78358,0.995467 -0.98107,1.781444 -0.79957,3.047964 0.25106,1.75746 0.7468,4.14258 1.07382,5.19722 0.22388,0.72201 0.87953,0.77318 2.02372,0.15032 0.46295,-0.25187 1.64312,-0.5733 2.59861,-0.72442 0.95628,-0.15191 2.226,-0.81316 2.82408,-1.44962 1.29131,-1.37446 2.23161,-4.944548 1.52398,-5.796891 -0.26305,-0.31663 -0.3694,-1.022652 -0.22468,-1.574356 0.23508,-0.898718 -0.008,-1.025051 -2.39871,-1.32409 -0.76359,-0.09515 -1.47121,-0.144723 -2.09887,-0.09995 z m -10.06981,0.874731 c -0.0328,0.0104 -0.0536,0.02878 -0.0752,0.05037 -0.12313,0.122335 0.11914,0.568495 0.55011,0.999464 0.87473,0.874732 1.69909,1.034646 1.69909,0.324626 0,-0.50213 -1.6871,-1.526381 -2.174,-1.37446 z m 1.04904,2.823287 c -0.69563,0 -0.70202,0.677236 -0.0496,2.798496 0.10714,0.34942 0.41897,0.49894 0.69962,0.32463 0.35821,-0.22068 0.36141,-0.51332 0,-0.94909 -0.28384,-0.34142 -0.39099,-0.96588 -0.22468,-1.39925 0.1967,-0.513326 0.0528,-0.774786 -0.42534,-0.774786 z m 5.32275,9.319806 c -0.10714,-0.0232 -0.28225,0.10714 -0.57489,0.35021 -0.39659,0.32862 -0.59808,0.78438 -0.44936,1.02425 0.38139,0.61807 1.17377,0.0288 1.17377,-0.87393 0,-0.30784 -0.0432,-0.47654 -0.14952,-0.50053 z m 22.54071,0.0256 c 1.47122,0.084 0.83156,0.71881 -1.95095,1.57355 -1.53118,0.47015 -3.94269,1.35448 -5.37312,1.97415 -1.43043,0.61966 -3.29103,1.07702 -4.12259,1.02425 -0.83235,-0.052 -2.976,-0.15672 -4.77264,-0.24947 -3.44615,-0.1783 -4.16097,-0.78358 -1.94856,-1.64872 1.32489,-0.51892 10.23132,-1.92936 15.99303,-2.54903 0.95949,-0.10314 1.6791,-0.15272 2.17483,-0.12473 z m 12.6892,0.32462 c 0.39979,0 0.72761,0.0952 0.72761,0.1999 0,0.10474 -0.32782,0.29664 -0.72761,0.44936 -0.39978,0.15351 -0.72761,0.0832 -0.72761,-0.17431 0,-0.25826 0.32783,-0.47495 0.72761,-0.47495 z m 33.62997,0.47495 c 0.27186,0 0.50373,0.10714 0.50373,0.22468 0,0.11754 -0.23187,0.33502 -0.50373,0.49973 -0.26385,0.16471 -0.47174,0.0824 -0.47174,-0.19989 0,-0.28225 0.20789,-0.52452 0.47174,-0.52452 z m -39.29893,0.0248 c 0.35181,0 0.53571,0.16631 0.35181,0.47494 -0.16791,0.26626 -0.76759,0.47895 -1.35127,0.47415 -0.86354,-0.006 -0.9435,-0.0927 -0.35181,-0.47415 0.47974,-0.30863 0.99946,-0.47494 1.35127,-0.47494 z m 4.02185,0.52452 c 0.088,-0.024 0.15991,-0.012 0.19989,0.0248 0.14392,0.14952 -0.33582,0.65725 -1.07143,1.12499 l -1.35127,0.84915 1.07142,-1.1242 c 0.44776,-0.46215 0.88753,-0.80117 1.15139,-0.87474 z m -8.04369,1.09941 c 0.072,-0.003 0.12793,0.003 0.14392,0.0256 0.13593,0.13273 -0.63966,1.12739 -1.74307,2.19882 -1.1034,1.07302 -2.29477,1.91257 -2.63059,1.87259 -0.32782,-0.04 -1.3033,-0.16791 -2.17003,-0.27185 -0.86514,-0.11194 -1.57356,-0.39979 -1.57356,-0.62367 0,-0.46375 6.82994,-3.1543 7.97333,-3.20149 z m 3.718,0.79957 c 0.25587,-0.0464 0.44776,0.11434 0.30384,0.5501 -0.10394,0.31583 -0.46375,0.66925 -0.77558,0.77399 -0.35181,0.11834 -0.45576,-0.10315 -0.27985,-0.57409 0.1759,-0.43977 0.49573,-0.70283 0.75159,-0.75 z m -3.67003,1.62633 c 0.12793,-0.024 0.19989,0.04 0.19989,0.1759 0,0.26386 -0.32782,0.7436 -0.72761,1.07143 -0.39978,0.33582 -0.71961,0.39179 -0.71961,0.12793 0,-0.27185 0.31983,-0.7436 0.71961,-1.07942 0.20789,-0.16791 0.39979,-0.27985 0.52772,-0.29584 z m -20.84003,0.29584 2.17404,0.12793 c 1.19776,0.064 2.16764,0.33582 2.14845,0.59968 -0.0528,0.7436 -1.26812,0.71162 -2.87286,-0.048 z m -1.74866,0.67963 c 0.34861,-0.056 0.71642,0.11994 1.39925,0.47175 0.79318,0.40778 1.54317,1.03145 1.6735,1.37526 0.26306,0.68764 -1.19136,0.83955 -3.89711,0.39979 l -1.62473,-0.27185 1.19936,-1.1274 c 0.5701,-0.53571 0.90112,-0.79957 1.24973,-0.84755 z m 23.26033,3.67004 c 0.28785,0 0.50373,0.20789 0.50373,0.47174 0,0.27186 -0.0879,0.50373 -0.19989,0.50373 -0.11994,0 -0.35981,-0.23187 -0.52772,-0.50373 -0.15991,-0.26385 -0.056,-0.47174 0.22388,-0.47174 z m 111.916,3.39818 c 1.48721,0.008 5.89285,4.2777 5.14924,5.17322 -0.7356,0.87953 -0.83955,0.83156 -3.64604,-1.44722 -2.68656,-2.18283 -3.04637,-2.92643 -1.75106,-3.65404 0.072,-0.04 0.15192,-0.072 0.24786,-0.072 z m 6.07675,5.82088 c 1.623132,0.04 5.445082,4.17376 4.621522,4.99732 -0.65565,0.65565 -1.4872,0.22388 -3.45415,-1.77505 -2.174832,-2.21481 -2.542642,-3.25426 -1.167372,-3.22227 z m 6.068742,6.10073 c 0.63966,0.056 1.29531,0.67164 1.29531,1.37526 0,0.32782 0.47175,0.91151 1.05543,1.2953 0.68763,0.45576 0.95149,0.99147 0.7436,1.52719 -0.47974,1.26332 -1.01545,0.97547 -2.74252,-1.43124 -1.26333,-1.75106 -1.47122,-2.30276 -0.95149,-2.62259 0.1839,-0.11194 0.38379,-0.16791 0.59967,-0.14392 z m 4.22174,5.9648 c 0.048,0 0.08,0 0.10394,0.032 0.072,0.11194 0.87154,1.27932 1.76706,2.57462 1.31129,1.88699 1.4952,2.4307 0.95149,2.76652 -1.07143,0.67963 -1.33529,0.54371 -2.09488,-1.1194 -0.39979,-0.86354 -0.99147,-1.96695 -1.32729,-2.4227 -0.47175,-0.65565 -0.47974,-0.96748 -0.024,-1.43124 0.23988,-0.23987 0.48774,-0.38379 0.62368,-0.3998 z m 3.27025,6.77237 c 0.5517,0 1.07942,0.59968 1.45522,1.62313 0.32782,0.9275 0.43177,2.07888 0.22388,2.65458 -0.34382,0.9195 -0.45576,0.84754 -1.45522,-0.87953 -1.3113,-2.27878 -1.39126,-3.39818 -0.22388,-3.39818 z m 2.52664,6.30062 c 0.67964,0 0.96748,0.33582 0.97548,1.09541 0,0.59968 0.13593,1.57516 0.29584,2.17484 0.23188,0.86353 0.0879,1.07942 -0.67164,1.07942 -0.69563,0 -1.05543,-0.41578 -1.27132,-1.5032 -0.47974,-2.38272 -0.3598,-2.84647 0.67164,-2.84647 z m 0.92751,5.79689 c 0.62366,0 1.03144,0.47175 1.24733,1.44723 0.39179,1.77505 -0.31983,3.31022 -1.07143,2.35074 -0.27985,-0.35181 -0.61567,-1.35927 -0.77558,-2.22281 -0.25587,-1.32729 -0.17591,-1.57516 0.59968,-1.57516 z m 0.76758,5.82088 c 0.87953,0 1.27132,2.09488 0.90352,4.8454 -0.32782,2.49467 -0.64765,2.86247 -1.57516,1.75107 -0.7356,-0.88753 -0.15191,-6.59647 0.67164,-6.59647 z m -0.89552,8.79529 c 0.12794,-0.04 0.26386,0.1839 0.52772,0.67164 0.29584,0.5597 0.42377,1.50319 0.27186,2.07888 -0.15192,0.57569 -0.45576,1.02345 -0.70363,1.02345 -0.7436,0 -1.01545,-1.33528 -0.54371,-2.75052 0.21589,-0.65565 0.31983,-0.98347 0.44776,-1.02345 z m -0.67164,4.92536 c 0.032,-0.016 0.048,-0.016 0.072,0 0.62366,0.22388 0.44776,2.16684 -0.27186,3.04636 -0.56769,0.67964 -1.37526,0.87953 -1.37526,0.32783 0,-0.95949 1.07942,-3.22227 1.57512,-3.37419 z m -1.65511,5.14124 c 0.79957,0 0.87953,1.1274 0.17591,2.52665 -0.77559,1.55916 -0.86354,1.61513 -1.24733,0.62366 -0.33582,-0.87953 0.43176,-3.15031 1.07142,-3.15031 z m -1.76705,4.37366 c 0.20789,0.016 0.43177,0.14392 0.59168,0.39978 0.33582,0.54371 -1.09541,3.45415 -1.69509,3.45415 -0.24787,0 -0.44776,0.33582 -0.44776,0.7436 0,0.41578 -0.91151,2.0629 -2.02292,3.65404 -2.21481,3.13432 -2.82248,3.49413 -2.82248,1.69509 0,-0.75159 0.35181,-1.3033 0.96748,-1.50319 0.53571,-0.16791 1.10341,-0.87953 1.27931,-1.59914 0.17591,-0.71162 0.91151,-2.15085 1.62313,-3.22228 0.71162,-1.06343 1.43124,-2.32675 1.59915,-2.7985 0.20788,-0.56769 0.56769,-0.84754 0.9275,-0.82355 z m -8.52343,11.89762 c 0.16791,0.008 0.31183,0.096 0.49573,0.24787 0.87953,0.72761 0.83955,1.71108 -0.0959,2.07088 -1.82302,0.70363 -2.65457,-0.28784 -1.39925,-1.6711 0.39979,-0.44776 0.71962,-0.66364 0.99942,-0.64765 z m -3.02238,3.79796 c 1.31929,-0.008 1.06343,1.26332 -1.103412,2.7985 -1.03145,0.72761 -2.01492,1.35128 -2.17483,1.35128 -0.15192,0 -0.27186,-0.68763 -0.27186,-1.5032 0,-1.23134 0.26386,-1.57515 1.69509,-2.17483 0.78358,-0.32783 1.415242,-0.47175 1.855012,-0.47175 z m -6.220672,4.69349 c 0.1999,0.024 0.47537,0.32454 0.24787,0.62366 -0.94209,1.23864 -2.50266,2.67857 -3.59807,2.67857 -0.42377,0 -0.7516,0.23187 -0.7516,0.49573 0,0.27185 -0.23187,0.47974 -0.49573,0.47974 -1.01546,0 -2.13241,-1.90348 0.13837,-3.63855 1.62313,-1.23934 4.11535,-0.67114 4.45916,-0.63915 z m -7.47599,4.37365 c 0.34382,0.016 0.45576,0.1839 0.45576,0.55171 0,0.47974 -0.61567,0.88752 -1.72708,1.09541 -0.95149,0.1839 -1.863,0.61567 -1.99893,0.97548 -0.48773,1.27131 -1.6631,0.76758 -1.50319,-0.64766 0.11994,-1.03144 0.40778,-1.35127 1.35128,-1.39925 0.66364,-0.032 1.81502,-0.23187 2.55063,-0.42377 0.38379,-0.10394 0.67164,-0.15991 0.87153,-0.15192 z m -10.14656,3.04637 c 0.26386,-0.024 0.45576,0.056 0.45576,0.25586 0,0.25586 -0.32783,0.47175 -0.72761,0.47175 -0.39979,0 -0.7516,-0.072 -0.7516,-0.17591 0,-0.10394 0.35181,-0.31983 0.7516,-0.47174 0.10394,-0.04 0.19189,-0.064 0.27185,-0.08 z m 0.45576,1.70309 c 0.26385,0 0.47174,0.20788 0.47174,0.47174 0,0.27186 -0.20789,0.50373 -0.47174,0.50373 -0.27186,0 -0.50373,-0.23187 -0.50373,-0.50373 0,-0.26386 0.23187,-0.47174 0.50373,-0.47174 z m -36.18061,0.51972 c 0.72761,-0.016 1.31929,0.1839 1.31929,0.45575 0,0.5677 -0.37579,0.5677 -1.69509,0 -0.85554,-0.3678 -0.80756,-0.42377 0.3758,-0.45575 z m 16.86296,1.40724 c 0.26386,0 0.3678,0.23188 0.19989,0.49574 -0.15991,0.26385 -0.53571,0.47174 -0.79957,0.47174 -0.26386,0 -0.1759,-0.47174 -0.1759,-0.47174 0.16791,-0.26386 0.51172,-0.49574 0.77558,-0.49574 z m 3.82195,0 c 0.27186,0 0.47975,0.23188 0.47975,0.49574 0,0.26385 -0.20789,0.47174 -0.47975,0.47174 -0.26386,0 -0.49573,-0.20789 -0.49573,-0.47174 0,-0.26386 0.23187,-0.49574 0.49573,-0.49574 z m 2.4227,0 c 0.27186,0 0.47975,0.23188 0.47975,0.49574 0,0.26385 -0.20789,0.47174 -0.47975,0.47174 -0.26385,0 -0.49573,-0.20789 -0.49573,-0.47174 0,-0.26386 0.23188,-0.49574 0.49573,-0.49574 z" />
      </g>
      <path
         inkscape:connector-curvature="0"
         id="path5318"
         d="m 16.032104,193.41126 c -0.09253,-0.0925 -0.03839,-0.32939 0.08418,-0.36829 0.181458,-0.0576 0.156604,-0.25279 -0.07287,-0.57233 l -0.199143,-0.2773 0.04382,-1.02501 c 0.0241,-0.56375 0.07251,-1.2391 0.107571,-1.50078 0.101648,-0.75862 0.488545,-2.35201 0.822712,-3.38826 0.169436,-0.52541 0.308065,-0.99457 0.308065,-1.04256 0,-0.14403 0.727974,-1.53586 1.342867,-2.56746 0.76563,-1.28448 1.896031,-2.78985 2.094938,-2.78985 0.0368,0 0.103182,-0.0781 0.147521,-0.17362 0.08002,-0.17234 0.932614,-0.91555 1.345043,-1.17248 0.118303,-0.0737 0.243506,-0.16878 0.27823,-0.21129 0.267688,-0.32768 2.707406,-1.58496 3.756505,-1.93587 1.193741,-0.39929 3.289498,-0.66124 4.383045,-0.54785 1.242404,0.12883 2.82553,0.57286 3.826204,1.07316 0.622341,0.31115 1.803746,1.01257 1.986978,1.17971 0.06945,0.0633 0.254116,0.19781 0.410374,0.29881 0.582886,0.37675 1.75708,1.3676 2.326551,1.96328 0.548366,0.5736 1.327219,1.54784 1.619358,2.02559 0.06945,0.11358 0.306183,0.46956 0.526079,0.79107 0.476173,0.69623 0.718147,1.16586 1.10215,2.13906 0.649222,1.64537 1.089783,3.18642 1.190149,4.16307 0.0343,0.33376 0.106769,0.67303 0.164718,0.77113 0.05691,0.0963 0.328746,0.33645 0.604082,0.53357 0.405497,0.29032 0.481134,0.36932 0.398103,0.41579 -0.118345,0.0662 -0.13659,0.27511 -0.0298,0.34111 0.03999,0.0247 0.107047,-0.002 0.149013,-0.0594 0.04197,-0.0574 0.132221,-0.10434 0.200569,-0.10434 0.156894,0 0.617915,0.30374 0.893058,0.58838 l 0.210497,0.21777 -0.145627,0.102 c -0.0801,0.0561 -0.199252,0.102 -0.264795,0.102 -0.1671,0 -0.808754,-0.35192 -1.106797,-0.60704 -0.137321,-0.11754 -0.281401,-0.21371 -0.320178,-0.21371 -0.03878,0 -0.687704,-0.29448 -1.442058,-0.6544 -1.715873,-0.81868 -2.601995,-1.17385 -3.634465,-1.45673 -1.564981,-0.42879 -2.044915,-0.49252 -2.232965,-0.29654 -0.186497,0.19436 -0.324872,0.24071 -1.330192,0.44562 -0.530014,0.10802 -1.147131,0.26547 -1.37137,0.34987 -0.377028,0.14191 -0.41229,0.1454 -0.468621,0.0463 -0.0512,-0.0901 -0.08148,-0.0946 -0.189831,-0.0283 -0.195843,0.11989 -0.230213,0.0948 -0.08639,-0.0631 0.07116,-0.0781 0.162346,-0.20598 0.202631,-0.28411 0.06258,-0.12136 0.124105,-0.14205 0.422414,-0.14205 0.192043,0 0.400545,0.0275 0.463338,0.0611 0.217193,0.11624 1.540374,-0.32068 1.622965,-0.53591 0.05556,-0.14479 -0.159295,-0.62295 -0.423679,-0.94289 -0.524269,-0.63444 -0.6935,-0.99424 -0.768306,-1.63349 -0.09158,-0.78262 -0.0046,-0.98117 0.577314,-1.31747 0.222594,-0.12865 0.426696,-0.26947 0.453559,-0.31294 0.215406,-0.34853 -0.699369,-0.14237 -1.157459,0.26086 -0.362666,0.31923 -0.505113,0.66347 -0.503392,1.21649 0.0017,0.56027 0.253133,1.11066 0.74082,1.62195 0.415963,0.43609 0.638835,0.82264 0.51898,0.90011 -0.1487,0.0961 -0.26864,0.0226 -0.250152,-0.15337 0.01561,-0.14853 -0.0095,-0.17326 -0.215235,-0.21186 -0.154533,-0.029 -0.277324,-0.0152 -0.36491,0.0411 -0.171166,0.10991 -2.057009,0.14618 -4.039478,0.0777 l -1.445227,-0.0499 -0.07677,-0.30281 c -0.121477,-0.47916 -0.74792,-1.05459 -1.148097,-1.05459 -0.117479,0 -0.355205,-0.0718 -0.528282,-0.15946 -0.363072,-0.18398 -0.499911,-0.14954 -0.663617,0.16703 -0.163756,0.31667 -0.0971,0.36888 0.461669,0.36165 0.565414,-0.007 0.894919,0.1198 1.175802,0.45361 0.16845,0.20019 0.198978,0.38435 0.125014,0.75417 -0.04191,0.20953 -0.278774,0.40583 -0.586354,0.48593 -0.08448,0.022 -0.25181,0.10664 -0.371834,0.18809 -0.279355,0.18958 -0.461336,0.20529 -0.298907,0.0258 0.184896,-0.2043 0.06668,-0.2746 -0.381149,-0.22664 -0.493192,0.0528 -0.631942,0.0123 -0.751954,-0.21982 -0.07688,-0.14867 -0.147231,-0.1882 -0.393898,-0.22131 -0.689867,-0.0926 -0.762785,-0.0511 -0.486556,0.27722 0.11434,0.13588 0.243878,0.20994 0.415102,0.23732 0.136891,0.0219 0.236046,0.0526 0.220344,0.0684 -0.0157,0.0157 -0.37474,0.11136 -0.797862,0.21257 -0.599977,0.14351 -0.917254,0.18403 -1.441443,0.18409 -1.241737,1.2e-4 -3.35228,0.31089 -3.902709,0.57462 -0.184262,0.0883 -0.28488,0.18675 -0.335327,0.32814 l -0.07207,0.20201 -0.09285,-0.17362 c -0.05107,-0.0955 -0.113248,-0.17365 -0.138182,-0.17369 -0.02493,-5e-5 -0.127883,-0.0711 -0.228775,-0.15784 -0.363124,-0.31229 -0.477774,-0.11785 -0.184767,0.31334 0.113011,0.16631 0.143307,0.25626 0.09207,0.27334 -0.0591,0.0197 -0.05939,0.0459 -0.0013,0.11589 0.05662,0.0682 0.05749,0.12896 0.0036,0.24732 -0.05999,0.13167 -0.05133,0.17706 0.05385,0.28224 0.125029,0.12503 0.124949,0.12534 -0.0325,0.12534 -0.08681,0 -0.157836,0.0249 -0.157836,0.0552 0,0.0304 -0.08295,0.0718 -0.184326,0.0921 -0.167396,0.0335 -0.275808,0.18091 -0.28608,0.38904 -0.0042,0.0859 -0.588255,0.39871 -0.834095,0.44673 -0.149223,0.0292 -0.246919,0.004 -0.386818,-0.0994 -0.284651,-0.21045 -0.416986,-0.15128 -0.458017,0.20479 -0.04615,0.40051 -0.418558,0.80508 -0.586494,0.63715 z m 3.240906,-3.37491 c 0,-0.15239 -0.166148,-0.15369 -0.247362,-0.002 -0.0427,0.0798 -0.03989,0.1391 0.0089,0.1879 0.09288,0.0929 0.238458,-0.0206 0.238458,-0.18596 z m 0.436393,-0.53534 c 0.726613,-0.20827 0.882747,-0.31095 1.059311,-0.69662 0.146182,-0.3193 0.157643,-0.40011 0.118314,-0.83412 -0.02395,-0.26431 -0.07638,-0.50085 -0.116499,-0.52565 -0.04012,-0.0248 -0.252552,-0.0643 -0.472063,-0.0878 -0.486107,-0.0521 -0.842887,0.0642 -1.141152,0.37197 -0.2802,0.2891 -0.320901,0.4883 -0.221517,1.0842 0.141931,0.85099 0.157344,0.8647 0.773606,0.68805 z m -1.320276,-0.87373 c 0,-0.05 -0.03009,-0.10957 -0.06686,-0.1323 -0.03677,-0.0227 -0.05808,-0.11621 -0.04735,-0.20774 0.01383,-0.11799 -0.01264,-0.1727 -0.09097,-0.188 -0.08438,-0.0165 -0.110281,0.0205 -0.109623,0.15666 0.0015,0.30192 0.06944,0.46236 0.195905,0.46236 0.0654,0 0.118906,-0.0409 0.118906,-0.091 z m 0.02844,-0.78785 c 0.0424,-0.0686 -0.259625,-0.32073 -0.384197,-0.32073 -0.117077,0 -0.108514,0.12322 0.0183,0.26335 0.111264,0.12295 0.306457,0.15356 0.365897,0.0574 z m 3.288338,-0.19805 c 0.06344,-0.10265 -0.02081,-0.35673 -0.132515,-0.39959 -0.118488,-0.0455 -0.343211,0.0617 -0.343211,0.16367 0,0.20806 0.377303,0.39517 0.475726,0.23592 z m 3.776291,-0.19438 c 0.298383,-0.24596 0.37385,-0.42877 0.283725,-0.6873 -0.05794,-0.16621 -0.0492,-0.21625 0.05834,-0.33382 0.06957,-0.0761 0.147008,-0.20933 0.172079,-0.29614 0.02507,-0.0868 0.129916,-0.29151 0.23299,-0.45489 0.216329,-0.3429 0.217971,-0.57665 0.0043,-0.607 -0.07813,-0.0111 -0.142044,-0.0537 -0.142033,-0.0947 2.8e-5,-0.11331 0.429284,-1.28987 0.528835,-1.4495 0.199589,-0.32003 0.167427,-0.86678 -0.05603,-0.95253 -0.0491,-0.0188 -0.172926,-0.19996 -0.275159,-0.40248 -0.102234,-0.20253 -0.31936,-0.49127 -0.482501,-0.64164 l -0.296621,-0.27342 -0.545803,0.0263 c -0.773213,0.0372 -1.078903,0.21366 -1.729923,0.99871 -0.560537,0.67595 -0.806997,1.14469 -0.95824,1.82249 -0.09426,0.42244 -0.09474,0.4789 -0.0052,0.61556 0.210282,0.32094 0.383626,0.11674 0.537382,-0.63303 0.09689,-0.47247 0.261531,-0.85556 0.433997,-1.00984 0.07395,-0.0661 0.134451,-0.10133 0.134451,-0.0782 0,0.0231 -0.130209,0.36136 -0.289352,0.75161 -0.244164,0.59874 -0.294911,0.79725 -0.324953,1.27115 l -0.0356,0.5616 0.1829,-0.0451 c 0.313759,-0.0774 0.560366,-0.25422 0.583541,-0.41836 0.01201,-0.085 0.05088,-0.19001 0.08639,-0.23324 0.04526,-0.0551 0.03333,-0.12626 -0.0399,-0.23802 -0.104379,-0.1593 -0.104249,-0.1595 0.181936,-0.28218 0.157514,-0.0675 0.286389,-0.15545 0.286389,-0.1954 0,-0.04 0.101742,-0.16584 0.226092,-0.27974 0.175678,-0.16092 0.232863,-0.2684 0.256456,-0.48203 0.05195,-0.47041 0.08175,-0.55068 0.279571,-0.75305 0.262149,-0.26817 0.23336,-0.46218 -0.07239,-0.48783 -0.173803,-0.0146 -0.303236,0.0332 -0.562708,0.20783 -0.185342,0.12473 -0.382077,0.21684 -0.437189,0.20469 -0.147645,-0.0325 0.296726,-0.4289 0.722205,-0.64417 0.461416,-0.23345 0.72009,-0.1886 1.080976,0.18745 0.301212,0.31387 0.401025,0.65298 0.401025,1.36249 0,0.65163 -0.339288,1.55299 -0.859626,2.28367 -0.256945,0.36082 -0.273513,0.57329 -0.05582,0.71593 0.138463,0.0907 0.157836,0.14856 0.157836,0.47123 0,0.20231 -0.02841,0.38538 -0.06313,0.40684 -0.03472,0.0215 -0.06313,0.0942 -0.06313,0.16157 0,0.18236 0.188349,0.15173 0.463945,-0.0754 l -1e-6,0 z m -6.775355,-0.0584 c 0.07183,-0.13422 -0.04626,-0.45495 -0.154263,-0.41895 -0.03703,0.0123 -0.107954,0.12919 -0.157609,0.25965 -0.07467,0.1962 -0.07579,0.24616 -0.0064,0.28902 0.109655,0.0678 0.241335,0.0141 0.318309,-0.12972 z m 0.18736,-0.59223 c 0,-0.10055 -0.114549,-0.19433 -0.169837,-0.13904 -0.05194,0.0519 0.02914,0.23002 0.104721,0.23002 0.03581,0 0.06512,-0.0409 0.06512,-0.091 z m 0.451464,-0.41391 c 0.104067,-0.10407 0.179685,-0.23869 0.168038,-0.29916 -0.027,-0.14021 -0.240695,-0.18847 -0.240695,-0.0544 0,0.0538 -0.07103,0.14442 -0.157836,0.2013 -0.175333,0.11488 -0.214002,0.34143 -0.05828,0.34143 0.05476,0 0.184704,-0.0851 0.288771,-0.18921 z m 2.010783,-1.60648 c 0,-0.046 0.05345,-0.0976 0.118775,-0.11468 0.130451,-0.0341 0.293121,-0.43772 0.236202,-0.58605 -0.08975,-0.23387 -0.354021,0.0165 -0.357449,0.33857 l -0.0025,0.23225 -0.08918,-0.20519 c -0.105039,-0.24167 -0.259795,-0.26575 -0.355665,-0.0553 -0.08411,0.1846 0.01423,0.40089 0.217163,0.47764 0.158576,0.06 0.232628,0.0322 0.232628,-0.0872 z m 13.672608,0.0215 c 0.02365,-0.0383 0.138969,-0.10967 0.256264,-0.15868 0.241277,-0.10081 0.275958,-0.20911 0.08311,-0.25954 -0.102393,-0.0268 -0.125956,-0.076 -0.110486,-0.23084 0.01851,-0.18524 0.0061,-0.19794 -0.211728,-0.21609 -0.196287,-0.0164 -0.237331,0.003 -0.270533,0.12627 -0.02153,0.08 -0.0704,0.24997 -0.10862,0.37761 -0.03821,0.12763 -0.05232,0.27679 -0.03134,0.33145 0.04345,0.11324 0.32842,0.13484 0.393327,0.0298 z m -9.723082,-1.09325 c 0.06735,-0.0492 0.102512,-0.10948 0.07814,-0.13385 -0.07385,-0.0738 -0.365864,0.0298 -0.365864,0.12989 0,0.1182 0.129059,0.11998 0.287723,0.004 z m 9.758186,-0.14963 c 0.03987,-0.10799 0.0281,-0.15415 -0.0466,-0.18282 -0.110996,-0.0426 -0.211011,0.0765 -0.212493,0.253 -0.0014,0.16242 0.192617,0.10988 0.25909,-0.0702 z m -0.0121,-0.55852 c 0.156409,-0.19884 0.163491,-0.26703 0.03294,-0.31713 -0.122223,-0.0469 -0.407163,0.21078 -0.407163,0.36821 0,0.17284 0.221916,0.14255 0.374225,-0.0511 z m -0.275115,-0.65743 c 0.297532,-0.20471 0.348753,-0.33481 0.169212,-0.42978 -0.258127,-0.13655 -0.848147,0.27322 -0.752459,0.52258 0.05887,0.15341 0.275475,0.11895 0.583247,-0.0928 z"
         style="fill:#a0a0a0;stroke:none;stroke-width:1px;stroke-linecap:butt;stroke-linejoin:miter;stroke-opacity:1" />
      <path
         inkscape:connector-curvature="0"
         id="path5320"
         d="m 20.630402,190.75866 c -1.015582,-0.0652 -0.955991,-0.22706 0.157837,-0.42865 1.504611,-0.27231 3.014648,-0.4271 2.869464,-0.29413 -0.03299,0.0302 -0.273056,0.12787 -0.533486,0.21702 -0.26043,0.0892 -0.714999,0.24873 -1.010153,0.3546 -0.532122,0.19089 -0.660891,0.204 -1.483662,0.15116 z"
         style="fill:#a0a0a0;stroke:none;stroke-width:1px;stroke-linecap:butt;stroke-linejoin:miter;stroke-opacity:1" />
      <path
         inkscape:connector-curvature="0"
         id="path5322"
         d="m 19.809654,191.51291 c -0.337112,-0.0336 -0.379092,-0.0911 -0.193736,-0.2652 0.179279,-0.16843 0.356839,-0.14899 0.634541,0.0694 0.16348,0.12859 0.167946,0.14304 0.05761,0.18634 -0.06578,0.0258 -0.148018,0.0442 -0.182742,0.0408 -0.03472,-0.003 -0.176776,-0.0175 -0.315672,-0.0314 z"
         style="fill:#a0a0a0;stroke:none;stroke-width:1px;stroke-linecap:butt;stroke-linejoin:miter;stroke-opacity:1" />
      <path
         inkscape:connector-curvature="0"
         id="path5326"
         d="m 20.722395,191.16925 c -0.116042,-0.0257 -0.311176,-0.10414 -0.46875,-0.18854 l -0.0558,-0.0299 0.145089,0.007 c 0.33614,0.0154 0.511325,0.0401 0.599131,0.0845 0.05384,0.0272 0.05624,0.0328 0.03375,0.0778 -0.03146,0.063 -0.116778,0.0797 -0.253413,0.0495 z"
         style="fill:#a0a0a0;stroke:none;stroke-width:1px;stroke-linecap:butt;stroke-linejoin:miter;stroke-opacity:1" />
      <path
         inkscape:connector-curvature="0"
         id="path5328"
         d="m 46.936725,193.44291 c -0.295796,-0.1988 -0.716263,-0.57762 -0.784887,-0.70713 l -0.06313,-0.11915 0.0899,-0.0782 c 0.06228,-0.0542 0.110773,-0.0721 0.157836,-0.0583 0.223671,0.0655 0.728398,0.51101 0.888602,0.78438 l 0.08692,0.14832 -0.0726,0.0773 c -0.03993,0.0425 -0.08271,0.0773 -0.09506,0.0773 -0.01236,0 -0.105767,-0.056 -0.207577,-0.12442 z"
         style="fill:#a0a0a0;stroke:none;stroke-width:1px;stroke-linecap:butt;stroke-linejoin:miter;stroke-opacity:1" />
      <path
         inkscape:connector-curvature="0"
         id="path5330"
         d="m 48.011318,194.48791 c -0.328129,-0.26363 -0.675707,-0.67259 -0.675707,-0.79504 0,-0.0304 0.03175,-0.0635 0.07103,-0.074 0.242149,-0.0645 1.00157,0.64542 0.965144,0.90221 -0.0078,0.0548 -0.03375,0.0744 -0.107925,0.0817 -0.07483,0.007 -0.133929,-0.0196 -0.252538,-0.11488 z"
         style="fill:#a0a0a0;stroke:none;stroke-width:1px;stroke-linecap:butt;stroke-linejoin:miter;stroke-opacity:1" />
      <path
         inkscape:connector-curvature="0"
         id="path5332"
         d="m 49.080553,195.72485 c -0.09799,-0.0397 -0.576953,-0.7226 -0.576953,-0.82263 0,-0.0231 0.03354,-0.0573 0.07454,-0.076 0.119534,-0.0545 0.261067,0.0365 0.309794,0.19916 0.02649,0.0884 0.09452,0.18403 0.206399,0.29008 0.176222,0.16702 0.200595,0.24151 0.117738,0.3598 -0.05021,0.0717 -0.06401,0.0769 -0.13152,0.0495 z"
         style="fill:#a0a0a0;stroke:none;stroke-width:1px;stroke-linecap:butt;stroke-linejoin:miter;stroke-opacity:1" />
      <path
         inkscape:connector-curvature="0"
         id="path5334"
         d="m 49.758052,196.99946 c -0.02589,-0.0395 -0.10742,-0.19221 -0.181185,-0.33935 -0.07377,-0.14713 -0.160758,-0.30522 -0.193318,-0.3513 -0.08144,-0.11527 -0.07417,-0.19975 0.02383,-0.27683 l 0.08303,-0.0653 0.186518,0.27334 c 0.277965,0.40735 0.40503,0.62104 0.40503,0.68116 0,0.0543 -0.147807,0.15013 -0.231556,0.15013 -0.02491,0 -0.06647,-0.0323 -0.09235,-0.0718 z"
         style="fill:#a0a0a0;stroke:none;stroke-width:1px;stroke-linecap:butt;stroke-linejoin:miter;stroke-opacity:1" />
      <path
         inkscape:connector-curvature="0"
         id="path5336"
         d="m 50.265728,198.0735 c -0.136477,-0.21645 -0.278415,-0.53769 -0.278442,-0.63018 -3.3e-5,-0.11258 0.102354,-0.17207 0.210971,-0.12259 0.163119,0.0743 0.326275,0.64573 0.233745,0.81862 -0.05075,0.0948 -0.06968,0.0873 -0.166274,-0.0659 z"
         style="fill:#a0a0a0;stroke:none;stroke-width:1px;stroke-linecap:butt;stroke-linejoin:miter;stroke-opacity:1" />
      <path
         inkscape:connector-curvature="0"
         id="path5338"
         d="m 50.553548,199.20509 c -0.03383,-0.0765 -0.07059,-0.24652 -0.08169,-0.37786 l -0.02019,-0.23881 0.09047,-0.0344 c 0.11491,-0.0437 0.226946,0.003 0.247243,0.10245 0.0081,0.0397 0.02241,0.15022 0.03185,0.24572 0.0094,0.0955 0.02641,0.23399 0.0377,0.30778 l 0.02052,0.13416 -0.132201,0 c -0.125905,0 -0.13513,-0.007 -0.193709,-0.13905 z"
         style="fill:#a0a0a0;stroke:none;stroke-width:1px;stroke-linecap:butt;stroke-linejoin:miter;stroke-opacity:1" />
      <path
         inkscape:connector-curvature="0"
         id="path5340"
         d="m 50.863546,200.39375 c -0.06732,-0.076 -0.152186,-0.33784 -0.172804,-0.53323 -0.01561,-0.14794 -0.01085,-0.1643 0.05386,-0.18484 0.214932,-0.0682 0.39314,0.36961 0.270203,0.66384 -0.05154,0.12336 -0.08073,0.13383 -0.151262,0.0542 z"
         style="fill:#a0a0a0;stroke:none;stroke-width:1px;stroke-linecap:butt;stroke-linejoin:miter;stroke-opacity:1" />
      <path
         inkscape:connector-curvature="0"
         id="path5342"
         d="m 50.868755,202.10377 c -0.06659,-0.0708 -0.07793,-0.1171 -0.0873,-0.35606 -0.0115,-0.2933 0.05931,-0.79792 0.122695,-0.87429 0.09992,-0.1204 0.19458,0.0155 0.232953,0.33448 0.03753,0.312 -0.07421,0.97729 -0.164142,0.97729 -0.01522,0 -0.06211,-0.0366 -0.104205,-0.0814 z"
         style="fill:#a0a0a0;stroke:none;stroke-width:1px;stroke-linecap:butt;stroke-linejoin:miter;stroke-opacity:1" />
      <path
         inkscape:connector-curvature="0"
         id="path5344"
         d="m 50.753326,203.23708 c -0.107532,-0.0416 -0.111354,-0.35507 -0.0077,-0.62782 l 0.03395,-0.0893 0.06072,0.0926 c 0.06896,0.10513 0.110194,0.32434 0.08208,0.43638 -0.02526,0.10063 -0.120747,0.2069 -0.169094,0.18818 z"
         style="fill:#a0a0a0;stroke:none;stroke-width:1px;stroke-linecap:butt;stroke-linejoin:miter;stroke-opacity:1" />
      <path
         inkscape:connector-curvature="0"
         id="path5346"
         d="m 50.378134,204.15984 c -0.03063,-0.0798 0.01394,-0.24062 0.122972,-0.44364 0.126573,-0.23568 0.192698,-0.24768 0.206125,-0.0374 0.01214,0.19022 -0.08046,0.3949 -0.214472,0.47407 -0.08537,0.0504 -0.09766,0.0512 -0.114625,0.007 z"
         style="fill:#a0a0a0;stroke:none;stroke-width:1px;stroke-linecap:butt;stroke-linejoin:miter;stroke-opacity:1" />
      <path
         inkscape:connector-curvature="0"
         id="path5350"
         d="m 50.142878,205.13227 c -0.04488,-0.11627 -0.01649,-0.3244 0.06641,-0.48691 0.05066,-0.0993 0.08099,-0.12593 0.134751,-0.11828 0.107258,0.0153 0.108979,0.20144 0.004,0.43531 -0.111871,0.24928 -0.159365,0.2886 -0.205191,0.16988 z"
         style="fill:#a0a0a0;stroke:none;stroke-width:1px;stroke-linecap:butt;stroke-linejoin:miter;stroke-opacity:1" />
      <path
         inkscape:connector-curvature="0"
         id="path5352"
         d="m 48.756138,207.32037 c 0,-0.17831 0.03054,-0.22436 0.231833,-0.34958 0.05516,-0.0343 0.119494,-0.12482 0.16683,-0.23469 0.126471,-0.29356 0.235362,-0.50324 0.376974,-0.72592 0.07364,-0.1158 0.181387,-0.30287 0.239443,-0.41572 0.09439,-0.18349 0.115575,-0.20519 0.20026,-0.20519 0.08026,0 0.09625,0.0135 0.10484,0.0884 0.0059,0.0517 -0.02926,0.16947 -0.08495,0.2841 -0.108368,0.22307 -0.151458,0.28193 -0.241455,0.32984 -0.03627,0.0193 -0.07963,0.093 -0.100627,0.17089 -0.08004,0.29712 -0.725337,1.22602 -0.851699,1.22602 -0.02903,0 -0.04145,-0.0504 -0.04145,-0.16812 z"
         style="fill:#a0a0a0;stroke:none;stroke-width:1px;stroke-linecap:butt;stroke-linejoin:miter;stroke-opacity:1" />
      <path
         inkscape:connector-curvature="0"
         id="path5354"
         d="m 47.059846,209.2128 c -0.02889,-0.054 -0.04216,-0.33324 -0.02027,-0.42627 0.02854,-0.12127 0.118613,-0.19227 0.364071,-0.28698 0.255057,-0.0984 0.426523,-0.098 0.46106,0.001 0.0099,0.0285 0.0097,0.0367 -0.0026,0.074 -0.04369,0.13357 -0.209596,0.29217 -0.526619,0.50341 -0.11893,0.0793 -0.241419,0.15154 -0.256762,0.15154 -0.0055,0 -0.01397,-0.008 -0.01893,-0.0168 z"
         style="fill:#a0a0a0;stroke:none;stroke-width:1px;stroke-linecap:butt;stroke-linejoin:miter;stroke-opacity:1" />
      <path
         inkscape:connector-curvature="0"
         id="path5356"
         d="m 48.091515,208.16062 c -0.05749,-0.0205 -0.09217,-0.069 -0.09179,-0.12831 4.23e-4,-0.0674 0.06708,-0.17961 0.15888,-0.26749 0.05855,-0.0561 0.104633,-0.082 0.145735,-0.082 0.05852,0 0.15913,0.0876 0.199285,0.17362 0.03843,0.0823 0.02239,0.17234 -0.0401,0.22518 -0.08159,0.069 -0.281154,0.11137 -0.37201,0.079 z"
         style="fill:#a0a0a0;stroke:none;stroke-width:1px;stroke-linecap:butt;stroke-linejoin:miter;stroke-opacity:1" />
      <path
         inkscape:connector-curvature="0"
         id="path5358"
         d="m 44.178443,210.82789 c -0.01823,-0.0124 -0.03699,-0.0363 -0.05116,-0.0651 -0.02071,-0.0422 -0.02234,-0.0522 -0.02203,-0.13629 6.63e-4,-0.17853 0.05095,-0.26939 0.16539,-0.29883 0.01736,-0.004 0.07596,-0.0121 0.130215,-0.017 0.125908,-0.0113 0.293913,-0.0396 0.440895,-0.0744 0.06351,-0.015 0.133729,-0.0297 0.156036,-0.0325 0.0851,-0.0109 0.126104,0.0245 0.119576,0.10318 -0.0084,0.10149 -0.104157,0.15778 -0.375487,0.22077 -0.106566,0.0247 -0.221798,0.0704 -0.283908,0.11242 -0.03644,0.0247 -0.05093,0.0413 -0.07425,0.0854 -0.03219,0.0608 -0.06865,0.1032 -0.09841,0.11452 -0.03493,0.0133 -0.07644,0.009 -0.106869,-0.0121 z"
         style="fill:#a0a0a0;stroke:none;stroke-width:1px;stroke-linecap:butt;stroke-linejoin:miter;stroke-opacity:1" />
      <path
         inkscape:connector-curvature="0"
         id="path5366"
         d="m 42.903273,210.92636 c -0.06254,-0.0132 -0.06528,-0.0276 -0.01172,-0.0616 0.09397,-0.0596 0.196505,-0.0825 0.225667,-0.0502 0.02807,0.031 0.0096,0.0732 -0.04438,0.10119 -0.02962,0.0154 -0.120142,0.0211 -0.169566,0.0106 z"
         style="fill:#a0a0a0;stroke:none;stroke-width:1px;stroke-linecap:butt;stroke-linejoin:miter;stroke-opacity:1" />
      <path
         inkscape:connector-curvature="0"
         id="path5368"
         d="m 43.088951,211.30072 c -0.04198,-0.0228 -0.05842,-0.0868 -0.03247,-0.12643 0.0374,-0.0571 0.126031,-0.0546 0.15653,0.004 0.04243,0.082 -0.04296,0.16607 -0.124063,0.12206 z"
         style="fill:#a0a0a0;stroke:none;stroke-width:1px;stroke-linecap:butt;stroke-linejoin:miter;stroke-opacity:1" />
      <path
         inkscape:connector-curvature="0"
         id="path5364"
         d="m 46.543495,209.45768 c -0.0087,-0.004 -0.04936,-0.0208 -0.0904,-0.0376 l -0.07461,-0.0307 0.04081,-0.0207 c 0.02245,-0.0114 0.05344,-0.0207 0.06887,-0.0207 0.02481,0 0.03077,0.004 0.05148,0.0369 0.03828,0.0604 0.03977,0.0885 0.0039,0.0727 z"
         style="fill:#a0a0a0;stroke:none;stroke-width:1px;stroke-linecap:butt;stroke-linejoin:miter;stroke-opacity:1" />
      <path
         inkscape:connector-curvature="0"
         id="path5360"
         d="m 45.546958,210.17106 c -0.028,-0.005 -0.04353,-0.0347 -0.03301,-0.0624 0.0148,-0.0389 0.07115,-0.105 0.152769,-0.17916 l 0.0784,-0.0712 0.05422,0.0569 c 0.02982,0.0313 0.0521,0.0603 0.04951,0.0645 -0.0026,0.004 -0.01604,0.008 -0.02989,0.008 -0.03196,2.2e-4 -0.08335,0.0237 -0.105099,0.0481 -0.0092,0.0103 -0.01926,0.033 -0.02229,0.0504 -0.0125,0.0716 -0.06228,0.10096 -0.144612,0.0852 z"
         style="fill:#a0a0a0;stroke:none;stroke-width:1px;stroke-linecap:butt;stroke-linejoin:miter;stroke-opacity:1" />
      <path
         inkscape:connector-curvature="0"
         id="path5370"
         d="m 45.467356,210.11695 c -0.06013,-0.0541 -0.09012,-0.1205 -0.09435,-0.20903 -0.0056,-0.11715 0.03752,-0.2211 0.136662,-0.3295 0.134248,-0.14678 0.295429,-0.2281 0.504173,-0.25437 0.09192,-0.0116 0.322254,-0.005 0.419169,0.0112 0.03472,0.006 0.05492,0.0113 0.04487,0.0118 -0.02218,0.001 -0.09616,0.0321 -0.09616,0.0403 0,0.003 0.03285,0.0194 0.073,0.0359 0.04015,0.0165 0.07611,0.0327 0.07991,0.036 0.0099,0.009 -0.07898,0.11483 -0.184407,0.22037 -0.157895,0.15807 -0.328,0.2713 -0.442835,0.29479 l -0.05047,0.0103 -0.01344,-0.0204 c -0.0074,-0.0112 -0.03236,-0.0412 -0.05549,-0.0665 l -0.04205,-0.046 -0.08811,0.0838 c -0.106764,0.10159 -0.147354,0.15418 -0.147354,0.19093 0,0.0145 -6.81e-4,0.0264 -0.0015,0.0264 -8.33e-4,0 -0.01955,-0.0162 -0.04159,-0.036 z"
         style="fill:#a0a0a0;stroke:none;stroke-width:1px;stroke-linecap:butt;stroke-linejoin:miter;stroke-opacity:1" />
      <path
         inkscape:connector-curvature="0"
         id="path5372"
         d="m 15.543161,183.54323 c -0.120821,-0.14558 -0.291958,-0.90643 -0.294321,-1.30851 -0.0023,-0.3907 0.08042,-0.64947 0.300115,-0.93894 0.272295,-0.35878 0.415647,-0.39553 0.202714,-0.052 -0.05643,0.091 -0.15755,0.24306 -0.224719,0.33781 l -0.122126,0.17229 0.18631,0.19917 c 0.320792,0.34292 0.342718,0.61054 0.115399,1.40845 -0.05996,0.21047 -0.101325,0.25648 -0.163372,0.18171 z"
         style="fill:#a0a0a0;stroke:none;stroke-width:1px;stroke-linecap:butt;stroke-linejoin:miter;stroke-opacity:1" />
    </g>
    <rect
       style="fill:#9400ff;fill-opacity:1;fill-rule:evenodd;stroke:#000000;stroke-width:1px;stroke-linecap:butt;stroke-linejoin:miter;stroke-opacity:1"
       id="rect5422"
       width="160.10918"
       height="98.489876"
       x="229.19078"
       y="230.09805" />
    <rect
       style="fill:#009cff;fill-opacity:1;fill-rule:evenodd;stroke:none;stroke-width:1px;stroke-linecap:butt;stroke-linejoin:miter;stroke-opacity:1"
       id="rect5424"
       width="7.0710678"
       height="8.0812206"
       x="232.97322"
       y="235.1225" />
    <rect
       style="fill:#009cff;fill-opacity:1;fill-rule:evenodd;stroke:none;stroke-width:1px;stroke-linecap:butt;stroke-linejoin:miter;stroke-opacity:1"
       id="rect6228"
       width="7.0710678"
       height="8.0812206"
       x="232.97322"
       y="247.44392" />
    <rect
       style="fill:#009cff;fill-opacity:1;fill-rule:evenodd;stroke:none;stroke-width:1px;stroke-linecap:butt;stroke-linejoin:miter;stroke-opacity:1"
       id="rect6230"
       width="7.0710678"
       height="8.0812206"
       x="232.97322"
       y="260.83676" />
    <rect
       style="fill:#009cff;fill-opacity:1;fill-rule:evenodd;stroke:none;stroke-width:1px;stroke-linecap:butt;stroke-linejoin:miter;stroke-opacity:1"
       id="rect6232"
       width="7.0710678"
       height="8.0812206"
       x="232.97322"
       y="273.69391" />
    <rect
       style="fill:#009cff;fill-opacity:1;fill-rule:evenodd;stroke:none;stroke-width:1px;stroke-linecap:butt;stroke-linejoin:miter;stroke-opacity:1"
       id="rect6234"
       width="7.0710678"
       height="8.0812206"
       x="232.97322"
       y="286.3725" />
    <rect
       style="fill:#009cff;fill-opacity:1;fill-rule:evenodd;stroke:none;stroke-width:1px;stroke-linecap:butt;stroke-linejoin:miter;stroke-opacity:1"
       id="rect6236"
       width="7.0710678"
       height="8.0812206"
       x="232.97322"
       y="299.58676" />
    <rect
       style="color:#000000;clip-rule:nonzero;display:inline;overflow:visible;visibility:visible;opacity:1;isolation:auto;mix-blend-mode:normal;color-interpolation:sRGB;color-interpolation-filters:linearRGB;solid-color:#000000;solid-opacity:1;fill:#9400ff;fill-opacity:1;fill-rule:evenodd;stroke:none;stroke-width:0.88582677;stroke-linecap:butt;stroke-linejoin:miter;stroke-miterlimit:4;stroke-dasharray:none;stroke-dashoffset:0;stroke-opacity:1;marker-end:url(#marker8684);color-rendering:auto;image-rendering:auto;shape-rendering:auto;text-rendering:auto;enable-background:accumulate"
       id="rect7510"
       width="0"
       height="0"
       x="0"
       y="0" />
    <rect
       y="260.12305"
       x="290.01157"
       height="24.426315"
       width="39.706135"
       id="rect12718"
       style="fill:#009cff;fill-opacity:1;fill-rule:evenodd;stroke:#0000ff;stroke-width:1.51676273px;stroke-linecap:butt;stroke-linejoin:miter;stroke-opacity:1"
       ry="3.7346444" />
    <text
       xml:space="preserve"
       style="font-style:normal;font-weight:normal;font-size:20.96415901px;line-height:125%;font-family:sans-serif;letter-spacing:0px;word-spacing:0px;fill:#000000;fill-opacity:1;stroke:none;stroke-width:1px;stroke-linecap:butt;stroke-linejoin:miter;stroke-opacity:1"
       x="293.12207"
       y="279.84827"
       id="text19800"
       sodipodi:linespacing="125%"><tspan
         sodipodi:role="line"
         id="tspan19802"
         x="293.12207"
         y="279.84827">OK</tspan></text>
    <path
       sodipodi:nodetypes="scccccsccs"
       inkscape:connector-curvature="0"
       id="path22658"
       d="m 282.33572,296.08518 c 3.30394,-3.606 6.36984,-6.22733 6.39707,-6.22733 0.46002,1.4807 1.16055,2.70036 1.96314,4.19571 1.77905,-4.64729 3.22185,-9.35988 5.3221,-13.87853 -4.69952,2.13841 -9.28799,3.10694 -14.3328,5.44633 1.45445,0.74981 2.97407,1.34237 4.50575,1.88897 -0.006,0.015 -3.14483,2.32505 -6.51895,5.81584 -3.3741,3.49081 -7.02475,6.18457 -6.37712,6.39732 0.91997,0.84445 2.08408,2.10687 2.9725,2.98471 z"
       style="color:#000000;clip-rule:nonzero;display:inline;overflow:visible;visibility:visible;opacity:1;isolation:auto;mix-blend-mode:normal;color-interpolation:sRGB;color-interpolation-filters:linearRGB;solid-color:#000000;solid-opacity:1;fill:#ffffff;fill-opacity:1;fill-rule:evenodd;stroke:#000000;stroke-width:1.56765163;stroke-linecap:round;stroke-linejoin:round;stroke-miterlimit:4;stroke-dasharray:none;stroke-dashoffset:0;stroke-opacity:1;color-rendering:auto;image-rendering:auto;shape-rendering:auto;text-rendering:auto;enable-background:accumulate" />
    <rect
       style="color:#000000;clip-rule:nonzero;display:inline;overflow:visible;visibility:visible;opacity:1;isolation:auto;mix-blend-mode:normal;color-interpolation:sRGB;color-interpolation-filters:linearRGB;solid-color:#000000;solid-opacity:1;fill:#707977;fill-opacity:1;fill-rule:evenodd;stroke:#000900;stroke-width:1.98389137;stroke-linecap:round;stroke-linejoin:round;stroke-miterlimit:4;stroke-dasharray:none;stroke-dashoffset:0;stroke-opacity:1;marker-end:url(#Arrow2Lend);color-rendering:auto;image-rendering:auto;shape-rendering:auto;text-rendering:auto;enable-background:accumulate"
       id="rect22942"
       width="47.28495"
       height="163.71352"
       x="286.50934"
       y="328.03067"
       ry="4.1657081" />
    <path
       style="color:#000000;clip-rule:nonzero;display:inline;overflow:visible;visibility:visible;opacity:1;isolation:auto;mix-blend-mode:normal;color-interpolation:sRGB;color-interpolation-filters:linearRGB;solid-color:#000000;solid-opacity:1;fill:#7079d0;fill-opacity:1;fill-rule:evenodd;stroke:#775489;stroke-width:5.54485464;stroke-linecap:round;stroke-linejoin:round;stroke-miterlimit:4;stroke-dasharray:none;stroke-dashoffset:0;stroke-opacity:1;marker-end:url(#Arrow2Lend);color-rendering:auto;image-rendering:auto;shape-rendering:auto;text-rendering:auto;enable-background:accumulate"
       d="m 216.06843,215.9266 0,112.74845 178.40764,0 0,-112.74845 z m 11.97596,12.15873 157.70985,0.074 0.0433,91.29953 -157.51332,0.19126 z"
       id="rect24620"
       inkscape:connector-curvature="0"
       sodipodi:nodetypes="cccccccccc" />
  </g>
</svg>
